<?xml version="1.0" standalone="no"?>
<!DOCTYPE svg PUBLIC "-//W3C//DTD SVG 20010904//EN"
 "http://www.w3.org/TR/2001/REC-SVG-20010904/DTD/svg10.dtd">
<svg version="1.0" xmlns="http://www.w3.org/2000/svg"
 width="300.000000pt" height="300.000000pt" viewBox="0 0 300.000000 300.000000"
 preserveAspectRatio="xMidYMid meet">

<g transform="translate(0.000000,300.000000) scale(0.100000,-0.100000)"
fill="#000000" stroke="none">
<path d="M435 2987 c-16 -8 -39 -12 -50 -9 -12 2 -16 1 -8 -5 6 -4 13 -17 15
-28 2 -17 -2 -20 -30 -19 -23 2 -41 -6 -65 -29 -20 -19 -27 -32 -19 -34 6 -3
12 -11 12 -19 0 -8 7 -14 15 -14 8 0 15 -5 15 -11 0 -5 -4 -7 -10 -4 -5 3 -17
2 -26 -3 -11 -6 -13 -11 -5 -16 6 -4 11 -2 11 3 0 8 6 8 18 2 9 -5 25 -12 35
-15 9 -3 17 -14 17 -24 0 -15 5 -18 26 -14 23 4 25 2 20 -16 -5 -15 -1 -27 13
-39 15 -13 18 -20 9 -30 -8 -10 -7 -12 5 -7 8 3 27 -2 41 -11 14 -9 30 -14 36
-10 6 4 10 3 9 -2 -3 -19 2 -23 20 -14 14 8 20 7 25 -5 3 -8 2 -12 -4 -9 -6 3
-7 -1 -4 -9 5 -12 11 -13 25 -6 11 7 16 16 12 27 -4 11 -2 14 8 11 8 -3 13
-11 11 -18 -2 -8 4 -11 18 -7 11 3 18 1 15 -3 -3 -5 -1 -11 5 -15 6 -4 8 -11
5 -16 -4 -5 -1 -9 4 -9 6 0 11 4 11 9 0 5 7 12 16 15 11 4 15 2 11 -7 -2 -7 4
-24 15 -37 l21 -25 -5 30 c-3 17 -3 24 -1 18 3 -7 8 -13 13 -13 5 0 11 6 14
13 3 6 2 -1 -2 -18 -3 -16 -6 -55 -5 -85 3 -124 6 -154 10 -135 9 35 22 39 28
9 4 -16 9 -37 11 -46 4 -12 0 -15 -16 -11 -26 7 -25 0 4 -75 14 -34 20 -62 14
-62 -6 0 -81 -7 -167 -16 l-156 -16 -200 -98 c-175 -85 -206 -104 -238 -144
l-38 -45 2 -486 c2 -439 3 -485 18 -485 14 -1 14 -2 -2 -14 -18 -14 -24 -32
-7 -21 5 3 10 -3 10 -14 0 -12 -4 -21 -10 -21 -6 0 -10 -137 -10 -390 l0 -390
1500 0 1500 0 0 424 -1 425 -32 4 -32 4 33 1 32 2 0 1070 0 1070 -1190 0
c-741 0 -1189 -4 -1185 -10 3 -5 12 -7 20 -4 19 7 32 -43 16 -59 -9 -9 -16 -8
-31 1 -17 10 -25 9 -43 -3 -13 -8 -27 -12 -30 -8 -4 3 -7 -1 -7 -10 0 -23 -24
-11 -41 19 -16 30 -2 44 45 44 30 0 29 11 -2 17 -57 12 -90 12 -117 0z m678
-81 c25 -14 48 -22 52 -18 3 3 3 -1 0 -11 -7 -17 80 -171 113 -200 20 -18 137
-48 210 -54 38 -4 55 -10 59 -21 2 -10 9 -26 13 -37 11 -26 18 -85 10 -80 -4
3 -10 -29 -13 -71 -4 -41 -16 -121 -28 -177 -11 -55 -24 -160 -29 -232 -9
-123 -32 -280 -43 -291 -8 -8 -25 80 -42 211 -19 147 -42 269 -59 315 -7 19
-14 49 -14 65 -2 39 -20 98 -22 70 0 -13 -6 -6 -16 20 -19 47 -20 62 -10 93 7
22 6 23 -14 12 -12 -6 -24 -9 -27 -6 -3 3 2 8 11 12 22 8 20 19 -7 57 -13 18
-30 47 -37 65 -16 41 -46 40 -43 -1 2 -27 46 -150 76 -212 19 -40 32 -96 17
-75 -8 11 -9 -3 -4 -53 5 -53 3 -71 -9 -85 -35 -41 -38 -58 -16 -110 13 -30
30 -54 45 -61 13 -6 24 -19 25 -28 0 -16 2 -15 9 2 5 11 9 55 9 98 1 42 5 77
10 77 11 0 25 -79 57 -320 30 -230 28 -195 19 -300 -7 -83 -7 -87 25 -150 18
-36 48 -87 68 -113 23 -32 36 -63 40 -93 2 -24 8 -44 12 -44 8 0 30 69 30 94
0 28 19 17 28 -16 l8 -33 13 35 12 35 15 -30 c14 -29 14 -28 8 25 -3 30 -5 82
-3 115 2 33 3 81 4 108 0 26 3 47 8 47 4 0 7 16 7 36 0 21 -4 33 -10 29 -14
-9 -13 8 2 23 6 6 13 42 14 79 2 38 8 97 13 133 6 36 13 128 17 205 9 208 12
238 20 259 4 10 7 74 8 142 1 68 1 124 2 124 13 0 104 -128 104 -147 0 -2 10
-17 22 -31 13 -17 19 -20 15 -9 -4 12 -3 16 4 11 6 -3 8 -18 5 -33 -3 -14 -3
-20 0 -13 3 6 10 12 15 12 6 0 7 -5 4 -11 -4 -6 2 -17 14 -25 15 -11 19 -22
15 -38 -4 -18 -1 -22 20 -21 13 0 28 3 32 7 4 4 13 0 21 -10 14 -16 14 -16 8
3 -3 11 -3 16 1 12 5 -4 14 3 22 15 10 18 12 18 6 3 -4 -11 -14 -46 -23 -77
l-15 -58 -53 -10 -53 -11 0 -47 c0 -26 -5 -63 -10 -82 -5 -19 -25 -93 -44
-165 -19 -71 -41 -153 -49 -181 -13 -46 -13 -52 4 -72 9 -12 24 -22 33 -22 9
0 16 -6 16 -12 0 -9 2 -10 8 -2 4 6 23 15 42 18 l35 7 -30 -19 c-49 -31 -56
-44 -45 -83 17 -57 13 -72 -15 -67 -13 3 -22 1 -19 -3 3 -5 -2 -9 -10 -9 -12
0 -14 8 -10 33 4 24 0 20 -14 -18 -16 -40 -28 -103 -47 -235 0 -3 -3 -9 -6
-15 -4 -5 -12 -57 -19 -115 -6 -58 -23 -181 -36 -275 -24 -165 -26 -170 -64
-221 -30 -40 -40 -63 -44 -105 -12 -121 -23 -176 -37 -197 -16 -22 -16 -22
-59 29 -37 45 -45 49 -50 33 -6 -17 -8 -17 -19 4 -14 26 -61 52 -93 52 -17 -1
-12 -5 17 -15 39 -14 85 -55 85 -77 0 -5 -13 4 -29 21 -20 21 -38 31 -58 30
l-28 -1 29 -8 c28 -9 75 -54 76 -74 0 -4 -16 6 -35 23 -37 32 -93 42 -125 21
-10 -6 -4 -8 21 -4 40 7 82 -10 114 -47 l20 -22 -30 21 c-16 12 -46 24 -65 27
l-35 6 38 -15 c41 -15 77 -43 77 -59 0 -6 -9 -2 -20 8 -16 14 -37 19 -94 19
-82 1 -81 1 -40 68 13 20 31 42 41 48 17 11 17 11 -1 6 -16 -6 -17 -4 -6 9 7
8 10 15 7 15 -3 0 -14 3 -24 6 -15 5 -15 4 -3 -5 13 -9 13 -11 -1 -11 -23 0
-31 26 -23 77 5 32 19 59 50 96 24 28 44 55 44 60 0 5 9 7 20 4 11 -3 20 -2
20 2 0 8 -83 118 -102 136 -20 19 2 -59 27 -98 29 -43 27 -53 -33 -111 l-40
-38 -6 28 c-3 16 -8 61 -11 99 -4 39 -13 115 -20 170 -7 54 -11 103 -9 107 3
4 7 86 9 180 3 167 15 261 61 487 8 40 13 76 10 79 -3 3 -6 -2 -6 -11 0 -44
-96 -68 -120 -29 -9 14 -10 13 -5 -8 5 -20 4 -22 -4 -9 -8 12 -7 27 5 54 15
37 16 37 60 30 40 -6 44 -4 44 14 0 20 -8 24 -67 36 -70 14 -126 173 -177 504
-15 89 -31 204 -36 254 -23 205 -39 157 -47 -142 -6 -213 -10 -233 -28 -136
-18 98 -23 155 -21 287 1 137 -3 164 -19 138 -10 -16 -22 -11 -30 13 -4 13 -8
17 -12 10 -2 -7 -9 -13 -14 -13 -11 0 -12 27 -1 32 10 4 52 105 52 124 0 8 5
14 10 14 6 0 10 10 10 23 0 33 39 75 85 91 61 22 116 19 168 -8z m-333 -296
c0 -5 -4 -10 -10 -10 -5 0 -10 5 -10 10 0 6 5 10 10 10 6 0 10 -4 10 -10z m0
-150 c0 -5 -2 -10 -4 -10 -3 0 -8 5 -11 10 -3 6 -1 10 4 10 6 0 11 -4 11 -10z
m0 -64 c0 -3 -4 -8 -10 -11 -5 -3 -10 -1 -10 4 0 6 5 11 10 11 6 0 10 -2 10
-4z m1380 -196 c0 -5 -2 -10 -4 -10 -3 0 -8 5 -11 10 -3 6 -1 10 4 10 6 0 11
-4 11 -10z m0 -45 c0 -8 5 -15 10 -15 6 0 10 -7 10 -15 0 -8 -5 -15 -10 -15
-7 0 -7 -6 0 -19 5 -11 10 -36 10 -55 0 -25 5 -36 15 -36 28 0 63 -22 58 -37
-3 -8 0 -13 8 -11 8 2 15 -7 16 -22 2 -22 2 -23 -6 -5 -6 11 -10 14 -10 6 -1
-10 -9 -12 -31 -8 -16 4 -32 2 -35 -3 -3 -6 5 -10 19 -10 26 0 66 -31 66 -50
0 -5 5 -10 11 -10 5 0 7 5 4 10 -3 6 -1 10 4 10 6 0 10 -17 10 -37 -1 -24 -3
-29 -6 -15 -2 12 -8 22 -13 22 -5 0 -7 -7 -4 -15 5 -12 0 -12 -28 -5 -49 15
-80 10 -33 -4 34 -11 40 -17 43 -45 2 -17 8 -29 13 -26 5 4 9 0 9 -8 0 -11 -9
-13 -40 -7 -29 5 -40 4 -40 -5 0 -7 -7 -18 -16 -25 -29 -25 -46 9 -51 102 -2
45 -8 132 -12 192 -5 69 -4 122 2 143 11 34 27 45 27 18z m-59 -53 c-6 -2 -18
-10 -26 -19 -13 -13 -15 -12 -15 6 0 11 10 27 23 36 20 14 22 14 26 -2 2 -9
-2 -19 -8 -21z m496 -34 c-3 -7 -5 -2 -5 12 0 14 2 19 5 13 2 -7 2 -19 0 -25z
m-355 -33 c-3 -18 -9 -24 -19 -21 -8 3 -17 6 -19 6 -8 0 -4 29 6 35 6 3 8 -2
5 -12 -3 -11 -1 -9 6 4 15 29 28 21 21 -12z m323 1 c9 4 15 0 15 -10 0 -9 -4
-16 -10 -16 -5 0 -10 -4 -10 -9 0 -6 12 -4 27 4 16 9 31 11 38 5 6 -5 32 -7
58 -6 25 2 44 -1 41 -5 -3 -5 -12 -9 -20 -9 -9 0 -14 -10 -14 -27 0 -22 2 -25
10 -13 9 13 10 13 10 0 0 -12 2 -12 9 -2 6 11 13 8 29 -12 11 -14 28 -26 38
-26 17 0 16 1 -2 16 -19 15 -18 15 3 11 12 -3 24 0 26 7 2 6 7 8 11 4 4 -3 2
-15 -6 -27 -10 -17 -10 -23 3 -36 13 -13 15 -13 16 7 1 13 7 24 13 26 6 2 16
10 23 17 11 10 16 5 31 -28 15 -35 19 -39 27 -24 14 23 29 21 29 -4 0 -11 4
-17 10 -14 6 3 7 -1 4 -9 -3 -9 -11 -13 -17 -9 -6 3 -7 1 -3 -6 4 -6 -2 -23
-13 -36 -11 -15 -22 -21 -26 -15 -3 5 -11 10 -18 10 -6 0 -3 -6 7 -13 18 -13
17 -18 -23 -93 -22 -44 -41 -85 -41 -91 0 -9 -30 -11 -102 -10 l-101 2 -56
120 c-31 66 -72 150 -92 187 -25 46 -33 71 -27 80 8 10 9 9 5 -4 -3 -9 1 -22
9 -28 11 -10 14 -10 14 1 0 11 2 11 10 -1 7 -10 10 -11 10 -2 0 7 -7 15 -15
18 -19 8 -20 24 -1 24 15 0 31 27 35 63 1 7 5 6 12 -5 5 -10 16 -15 24 -12z
m-265 -23 c0 -43 -5 -41 -13 5 -4 18 -2 32 3 32 6 0 10 -16 10 -37z m195 20
c-2 -10 -4 -19 -4 -21 -1 -1 -7 3 -15 10 -10 9 -11 15 -2 20 18 12 24 9 21 -9z
m165 7 c0 -5 -4 -10 -10 -10 -5 0 -10 5 -10 10 0 6 5 10 10 10 6 0 10 -4 10
-10z m-227 -15 c-3 -9 -8 -14 -10 -11 -3 3 -2 9 2 15 9 16 15 13 8 -4z m-166
-17 c-3 -8 -6 -5 -6 6 -1 11 2 17 5 13 3 -3 4 -12 1 -19z m513 -32 c0 -3 -4
-8 -10 -11 -5 -3 -10 -1 -10 4 0 6 5 11 10 11 6 0 10 -2 10 -4z m-471 -73 c1
-7 -3 -13 -9 -13 -5 0 -10 17 -9 38 1 33 2 34 9 12 4 -14 8 -31 9 -37z m44
-108 c4 -57 3 -82 -3 -69 -4 12 -11 71 -14 130 -3 71 -2 95 3 69 5 -22 11 -80
14 -130z m582 135 c3 -5 1 -10 -4 -10 -6 0 -11 5 -11 10 0 6 2 10 4 10 3 0 8
-4 11 -10z m-805 -81 c0 -10 -2 -19 -4 -19 -14 0 -36 14 -36 22 0 5 5 6 10 3
6 -3 10 1 10 10 0 9 5 13 10 10 6 -3 10 -15 10 -26z m-148 -14 c17 -24 8 -38
-21 -32 -15 3 -33 1 -39 -5 -8 -8 -8 -3 0 19 12 32 44 42 60 18z m337 -97 c0
-33 -2 -38 -9 -23 -12 28 -12 65 0 65 6 0 10 -19 9 -42z m-222 -50 c-3 -8 -6
-5 -6 6 -1 11 2 17 5 13 3 -3 4 -12 1 -19z m-462 -68 c8 -16 15 -37 14 -47 0
-12 -3 -9 -8 8 -5 14 -14 35 -20 47 -6 12 -9 22 -7 22 3 0 12 -13 21 -30z
m573 2 c9 -6 11 -24 5 -68 l-7 -59 -9 38 c-5 20 -13 37 -17 37 -14 0 -20 44
-7 52 15 10 19 10 35 0z m-98 -6 c0 -2 -7 -7 -16 -10 -8 -3 -12 -2 -9 4 6 10
25 14 25 6z m-55 -26 c-3 -5 2 -10 13 -10 16 0 22 -12 32 -62 6 -34 18 -67 26
-73 9 -6 16 -37 19 -90 l4 -80 -9 74 c-10 73 -24 106 -41 95 -5 -3 -9 0 -9 6
0 6 -4 9 -9 5 -5 -3 -12 -1 -16 5 -3 5 -1 10 4 10 6 0 11 5 11 12 0 6 -3 8 -7
5 -3 -4 -12 2 -20 13 -17 25 -33 26 -34 3 -1 -12 -4 -10 -9 7 -9 29 -11 22
-13 -37 -2 -69 -14 -49 -19 30 -5 68 -1 97 9 70 7 -20 31 -15 43 7 6 11 15 20
21 20 6 0 7 -4 4 -10z m895 -20 c0 -10 -49 -20 -68 -13 -10 4 -10 8 -2 13 16
10 70 10 70 0z m-1745 -29 c-3 -5 -1 -13 5 -16 7 -4 3 -13 -10 -25 -18 -16
-19 -18 -4 -24 31 -12 6 -19 -26 -7 -25 8 -38 7 -62 -5 l-30 -16 18 25 c11 14
26 25 34 25 35 -2 60 3 60 12 0 13 -41 13 -74 0 -14 -5 -26 -8 -26 -5 0 7 43
28 75 36 43 10 47 10 40 0z m-30 -101 c-3 -4 2 -10 10 -14 8 -3 15 -10 15 -16
0 -6 -12 -4 -30 5 -17 9 -40 14 -50 11 -71 -21 -68 -21 -40 2 24 20 106 30 95
12z m731 -57 c-10 -10 -19 5 -10 18 6 11 8 11 12 0 2 -7 1 -15 -2 -18z m-746
7 c-8 -5 -10 -10 -4 -10 5 0 19 -7 30 -15 17 -13 13 -14 -46 -9 -36 4 -73 6
-82 6 -25 -1 -22 5 10 22 30 17 117 22 92 6z m1456 -126 c85 -84 141 -252 151
-454 9 -193 -38 -372 -107 -400 -135 -56 -270 168 -287 476 -5 86 -3 113 7
119 10 6 12 3 8 -13 -3 -11 -2 -72 3 -135 17 -236 112 -417 218 -417 98 0 146
115 143 340 -1 136 -28 270 -73 365 -30 65 -100 135 -134 135 -16 0 -25 6 -25
15 0 32 50 16 96 -31z m-1443 17 c8 -8 2 -21 -19 -43 l-29 -33 29 25 c26 23
28 23 23 5 -3 -11 -8 -32 -11 -47 -9 -39 -38 -43 -85 -14 -43 28 -69 56 -33
37 11 -6 27 -11 34 -11 7 0 2 6 -11 13 -31 15 -49 65 -30 79 17 11 118 3 132
-11z m737 -18 c0 -22 -2 -25 -10 -13 -13 20 -13 40 0 40 6 0 10 -12 10 -27z
m-1296 -9 c3 -9 6 -68 6 -133 0 -149 -2 -152 -101 -157 l-74 -3 64 9 c35 5 70
11 76 14 13 4 29 235 18 261 -4 12 -20 14 -72 11 -53 -3 -57 -2 -21 4 77 12
98 11 104 -6z m-201 -11 c-7 -2 -21 -2 -30 0 -10 3 -4 5 12 5 17 0 24 -2 18
-5z m-70 -10 c-13 -2 -33 -2 -45 0 -13 2 -3 4 22 4 25 0 35 -2 23 -4z m-110
-10 c-13 -2 -33 -2 -45 0 -13 2 -3 4 22 4 25 0 35 -2 23 -4z m-98 -8 c-25 -10
-116 -22 -108 -15 4 5 19 10 33 13 31 5 89 7 75 2z m434 -49 c0 -20 -1 -20
-10 2 -5 13 -13 20 -19 17 -16 -10 -11 -38 10 -65 23 -30 26 -73 5 -90 -20
-16 -35 -4 -34 28 2 24 2 24 6 5 2 -13 9 -23 14 -23 14 0 10 53 -6 74 -29 38
-10 111 22 85 7 -7 13 -21 12 -33z m-92 -103 c-2 -27 -3 -5 -3 47 0 52 1 74 3
48 2 -27 2 -69 0 -95z m426 130 c-7 -2 -19 -2 -25 0 -7 3 -2 5 12 5 14 0 19
-2 13 -5z m-533 -88 c0 -50 -4 -85 -10 -85 -5 0 -10 9 -10 19 0 11 -3 28 -7
38 -6 13 -10 6 -14 -27 -5 -35 -6 -25 -7 43 -1 52 2 87 8 87 6 0 10 -13 10
-30 0 -16 4 -30 9 -30 5 0 7 9 4 20 -5 20 2 50 12 50 3 0 5 -38 5 -85z m50 46
c0 -21 3 -60 7 -87 6 -44 5 -48 -9 -36 -13 10 -17 10 -21 0 -11 -32 -13 4 -4
80 10 84 27 112 27 43z m293 32 c-7 -2 -19 -2 -25 0 -7 3 -2 5 12 5 14 0 19
-2 13 -5z m-409 -20 c4 -9 4 -48 0 -85 -5 -56 -10 -68 -23 -66 -12 3 -17 18
-19 72 -2 41 2 73 9 82 15 19 25 18 33 -3z m-287 -15 c-3 -8 -6 -5 -6 6 -1 11
2 17 5 13 3 -3 4 -12 1 -19z m170 -9 c1 -14 0 -17 -3 -6 -12 39 -24 13 -24
-50 0 -61 1 -65 15 -47 8 10 15 15 15 11 0 -15 -20 -47 -30 -47 -11 0 -14 129
-4 155 9 23 29 13 31 -16z m45 -51 c-4 -100 -12 -99 -12 2 0 46 3 80 7 76 4
-4 6 -39 5 -78z m1811 42 c-7 -8 -22 24 -16 34 4 5 10 1 13 -10 4 -10 6 -21 3
-24z m347 25 c7 -9 8 -15 2 -15 -5 0 -12 7 -16 15 -3 8 -4 15 -2 15 2 0 9 -7
16 -15z m-2262 -130 c1 -29 -2 -34 -7 -20 -8 19 -8 19 -20 0 -11 -18 -11 -17
-7 10 3 17 8 57 12 90 l8 60 7 -50 c4 -27 7 -68 7 -90z m-46 113 c2 -7 1 -44
-2 -83 -4 -40 -8 -54 -8 -32 -2 48 -22 49 -22 0 0 -20 -2 -34 -6 -31 -11 11 9
158 21 158 7 0 15 -6 17 -12z m1824 -25 c-10 -10 -19 5 -10 18 6 11 8 11 12 0
2 -7 1 -15 -2 -18z m547 -43 c-5 -19 -23 -39 -23 -25 0 9 20 45 24 45 2 0 2
-9 -1 -20z m171 -65 c-4 -8 -8 -15 -10 -15 -2 0 -4 7 -4 15 0 8 4 15 10 15 5
0 7 -7 4 -15z m-200 -41 c3 -8 2 -12 -4 -9 -6 3 -10 10 -10 16 0 14 7 11 14
-7z m-2061 -11 c-23 -2 -64 -2 -90 0 -26 2 -7 3 42 3 50 0 71 -1 48 -3z m-250
-10 c-7 -2 -19 -2 -25 0 -7 3 -2 5 12 5 14 0 19 -2 13 -5z m90 0 c-7 -2 -21
-2 -30 0 -10 3 -4 5 12 5 17 0 24 -2 18 -5z m-156 -9 c-3 -3 -12 -4 -19 -1 -8
3 -5 6 6 6 11 1 17 -2 13 -5z m633 -43 c0 10 3 10 14 -1 16 -16 24 -159 12
-195 -5 -13 -2 -11 8 5 16 27 17 26 35 -42 10 -40 2 -48 -23 -23 -8 8 -18 15
-21 15 -4 0 -5 -7 -1 -15 3 -10 0 -15 -12 -14 -22 1 -70 17 -57 18 6 1 3 6 -5
11 -9 6 -11 13 -5 18 6 4 10 21 11 37 1 17 5 67 9 113 6 67 10 80 21 71 11 -9
14 -8 14 2z m2004 -7 c3 -8 2 -12 -4 -9 -6 3 -10 10 -10 16 0 14 7 11 14 -7z
m-184 -3 c0 -10 -24 -21 -46 -21 -8 0 -14 5 -14 11 0 5 4 8 8 5 4 -2 14 -1 22
5 19 11 30 11 30 0z m222 -49 c3 -9 2 -38 -2 -62 -4 -25 -8 -35 -9 -22 0 13
-6 32 -12 43 -10 20 -4 59 11 59 4 0 10 -8 12 -18z m176 11 c-21 -2 -57 -2
-80 0 -24 2 -7 4 37 4 44 0 63 -2 43 -4z m-316 -15 c3 -7 2 -38 -2 -68 -7 -52
-12 -48 -14 12 -1 14 -4 29 -8 33 -8 8 1 35 12 35 4 0 10 -6 12 -12z m-82 -58
c0 -5 -2 -10 -4 -10 -3 0 -8 5 -11 10 -3 6 -1 10 4 10 6 0 11 -4 11 -10z m0
-29 c0 -5 -6 -14 -14 -20 -12 -10 -13 -8 -9 8 5 21 23 30 23 12z m424 -61 c4
0 4 5 0 12 -4 7 -3 8 4 4 19 -12 14 -26 -9 -26 -12 0 -28 8 -35 18 -22 28 -16
37 9 14 13 -12 27 -22 31 -22z m-329 -42 c-9 -29 -53 -88 -66 -88 -16 0 -10
14 26 53 19 21 35 42 35 48 0 5 3 9 6 9 3 0 2 -10 -1 -22z m46 -31 c-10 -9
-11 -8 -5 6 3 10 9 15 12 12 3 -3 0 -11 -7 -18z m-2232 -79 l-2 -53 -7 45 c-7
42 -5 60 6 60 2 0 3 -24 3 -52z m1653 27 c0 -5 -5 -11 -11 -13 -6 -2 -11 4
-11 13 0 9 5 15 11 13 6 -2 11 -8 11 -13z m-1362 -50 c0 -8 -4 -15 -10 -15 -5
0 -10 7 -10 15 0 8 5 15 10 15 6 0 10 -7 10 -15z m-293 -97 c-3 -8 -6 -5 -6 6
-1 11 2 17 5 13 3 -3 4 -12 1 -19z m3 -62 c0 -3 -4 -8 -10 -11 -5 -3 -10 -1
-10 4 0 6 5 11 10 11 6 0 10 -2 10 -4z m176 -164 c-13 -13 -16 9 -9 64 l8 59
3 -59 c2 -32 1 -61 -2 -64z m771 -4 c18 -13 33 -26 33 -29 0 -10 109 18 126
31 12 11 14 7 14 -20 0 -19 -7 -42 -17 -52 -15 -17 -14 -18 15 -18 49 0 38
-18 -15 -25 -27 -4 -72 -14 -102 -22 -53 -15 -163 -13 -205 3 -21 8 -22 82 -2
90 8 3 12 12 10 19 -7 17 42 44 80 45 17 0 45 -10 63 -22z m-944 -93 c1 -5
-16 -11 -38 -13 -40 -2 -40 -2 -15 13 27 16 50 16 53 0z m1440 -16 c-9 -9 -12
-7 -10 9 1 14 5 18 11 12 7 -7 6 -14 -1 -21z m126 12 c25 -16 4 -41 -34 -41
-40 0 -45 12 -12 28 20 11 20 11 -7 5 -20 -4 -27 -3 -22 6 8 13 55 14 75 2z
m-1577 -33 c-15 -13 -82 -13 -82 1 0 5 20 8 44 7 25 0 42 -4 38 -8z m1488 2
c0 -5 -5 -10 -11 -10 -5 0 -7 5 -4 10 3 6 8 10 11 10 2 0 4 -4 4 -10z"/>
<path d="M1047 2767 c31 -36 46 -79 63 -194 8 -50 21 -86 42 -118 30 -46 74
-83 84 -72 3 3 -10 50 -29 104 -19 54 -42 123 -52 153 -20 66 -48 113 -82 140
-42 33 -59 25 -26 -13z"/>
<path d="M1195 2730 c8 -28 16 -55 19 -58 10 -9 7 23 -5 59 -19 56 -29 56 -14
-1z"/>
<path d="M1236 2680 c4 -19 10 -42 15 -50 11 -18 1 34 -13 65 -5 13 -6 9 -2
-15z"/>
<path d="M1389 2545 c11 -23 17 -53 15 -70 -5 -40 3 -21 15 32 5 26 5 41 0 37
-5 -3 -19 5 -30 18 l-20 23 20 -40z"/>
<path d="M1040 2495 c0 -3 9 -34 19 -68 11 -34 38 -138 60 -232 60 -252 87
-345 105 -363 10 -11 16 -12 16 -4 0 7 -4 12 -9 12 -5 0 -12 7 -15 16 -5 14
-4 15 9 4 13 -11 14 -5 10 46 -12 128 -15 141 -35 189 -5 11 -29 84 -54 162
-50 159 -84 243 -97 243 -5 0 -9 -2 -9 -5z"/>
<path d="M1921 2294 c0 -11 3 -14 6 -6 3 7 2 16 -1 19 -3 4 -6 -2 -5 -13z"/>
<path d="M1987 2236 c-32 -14 -27 -25 8 -18 14 2 25 11 25 18 0 8 -1 14 -2 13
-2 0 -15 -6 -31 -13z"/>
<path d="M1264 1959 c-3 -5 -2 -15 3 -22 5 -7 9 -75 8 -152 l-1 -140 17 105
c11 69 14 111 8 123 -6 9 -7 17 -5 17 3 0 1 11 -4 25 -6 16 -6 25 0 25 15 0
12 17 -5 23 -8 4 -17 2 -21 -4z"/>
<path d="M1240 1806 c0 -2 7 -9 15 -16 9 -7 15 -8 15 -2 0 5 -7 12 -15 16 -8
3 -15 4 -15 2z"/>
<path d="M1413 529 c9 -5 21 -8 26 -5 5 3 22 -6 39 -22 61 -56 72 -65 72 -56
0 5 -18 28 -40 52 -33 35 -45 42 -77 42 -31 -1 -35 -3 -20 -11z"/>
<path d="M1245 250 c-3 -6 1 -7 9 -4 18 7 21 14 7 14 -6 0 -13 -4 -16 -10z"/>
<path d="M2130 2095 c0 -8 5 -15 10 -15 6 0 10 7 10 15 0 8 -4 15 -10 15 -5 0
-10 -7 -10 -15z"/>
<path d="M2510 1910 c0 -5 5 -10 11 -10 5 0 7 5 4 10 -3 6 -8 10 -11 10 -2 0
-4 -4 -4 -10z"/>
<path d="M1103 1373 c9 -2 23 -2 30 0 6 3 -1 5 -18 5 -16 0 -22 -2 -12 -5z"/>
<path d="M402 1080 c0 -14 2 -19 5 -12 2 6 2 18 0 25 -3 6 -5 1 -5 -13z"/>
<path d="M277 1153 c-11 -10 -8 -123 3 -123 6 0 10 28 10 65 0 65 -1 71 -13
58z"/>
<path d="M111 1054 c0 -11 3 -14 6 -6 3 7 2 16 -1 19 -3 4 -6 -2 -5 -13z"/>
<path d="M62 1110 c0 -19 2 -27 5 -17 2 9 2 25 0 35 -3 9 -5 1 -5 -18z"/>
<path d="M230 2870 c0 -5 5 -10 10 -10 6 0 10 5 10 10 0 6 -4 10 -10 10 -5 0
-10 -4 -10 -10z"/>
</g>
</svg>
