<?xml version="1.0" standalone="no"?>
<!DOCTYPE svg PUBLIC "-//W3C//DTD SVG 20010904//EN"
 "http://www.w3.org/TR/2001/REC-SVG-20010904/DTD/svg10.dtd">
<svg version="1.0" xmlns="http://www.w3.org/2000/svg"
 width="300.000000pt" height="300.000000pt" viewBox="0 0 300.000000 300.000000"
 preserveAspectRatio="xMidYMid meet">

<g transform="translate(0.000000,300.000000) scale(0.100000,-0.100000)"
fill="#000000" stroke="none">
<path d="M0 1500 l0 -1500 1345 0 c1039 0 1345 3 1345 12 0 9 3 9 12 0 8 -8
57 -12 155 -12 l143 0 0 1500 0 1500 -714 0 c-562 0 -715 -3 -719 -12 -4 -10
-6 -10 -6 0 -1 6 -14 12 -30 12 -25 0 -30 -5 -34 -27 l-4 -28 -2 28 -1 27
-745 0 -745 0 0 -1500z m1497 1393 c-3 -10 -5 -4 -5 12 0 17 2 24 5 18 2 -7 2
-21 0 -30z m-83 -19 c3 -8 2 -12 -4 -9 -6 3 -10 10 -10 16 0 14 7 11 14 -7z
m226 12 c0 -2 -7 -9 -15 -16 -13 -11 -14 -10 -9 4 5 14 24 23 24 12z m10 -68
l-5 -63 -3 49 c-3 43 2 76 10 76 2 0 1 -28 -2 -62z m47 -60 c-2 -18 -4 -4 -4
32 0 36 2 50 4 33 2 -18 2 -48 0 -65z m-180 25 c-3 -10 -5 -2 -5 17 0 19 2 27
5 18 2 -10 2 -26 0 -35z m334 -9 c-5 -16 -12 -36 -16 -46 -4 -11 0 -18 14 -23
21 -6 44 -65 35 -90 -8 -20 -56 -25 -81 -9 -30 19 -32 78 -3 96 11 7 20 20 20
29 0 18 30 82 36 76 2 -2 0 -17 -5 -33z m-353 -39 c-1 -19 -7 -36 -15 -39 -8
-4 -11 -1 -8 5 4 6 7 26 7 45 0 19 4 32 9 29 4 -3 8 -21 7 -40z m149 -22 c-3
-10 -5 -4 -5 12 0 17 2 24 5 18 2 -7 2 -21 0 -30z m-72 7 c3 -5 1 -10 -4 -10
-6 0 -11 5 -11 10 0 6 2 10 4 10 3 0 8 -4 11 -10z m155 -26 c0 -8 -5 -12 -10
-9 -6 4 -8 11 -5 16 9 14 15 11 15 -7z m-213 -26 c-3 -7 -5 -2 -5 12 0 14 2
19 5 13 2 -7 2 -19 0 -25z m-17 -2 c0 -3 -4 -8 -10 -11 -5 -3 -10 -1 -10 4 0
6 5 11 10 11 6 0 10 -2 10 -4z m17 -408 c-1 -68 -3 -13 -3 122 0 135 2 190 3
123 2 -68 2 -178 0 -245z m-199 332 c-7 -10 -14 -17 -17 -15 -4 4 18 35 25 35
2 0 -1 -9 -8 -20z m-311 -23 c-12 -13 -24 -22 -26 -20 -6 4 30 43 40 43 5 0
-2 -10 -14 -23z m100 17 c-3 -3 -12 -4 -19 -1 -8 3 -5 6 6 6 11 1 17 -2 13 -5z
m593 0 c0 -8 -19 -13 -24 -6 -3 5 1 9 9 9 8 0 15 -2 15 -3z m235 -3 c-3 -5
-20 -12 -38 -16 -17 -4 -40 -9 -49 -11 -10 -3 -18 -1 -18 5 0 6 15 11 33 12
17 0 41 4 52 9 27 11 27 11 20 1z m-715 -24 c21 0 26 -1 12 -4 -18 -4 -22 -9
-16 -26 5 -20 5 -20 -7 -6 -8 9 -25 24 -39 34 -18 12 -19 15 -5 10 11 -5 36
-8 55 -8z m530 3 c13 -9 13 -10 0 -10 -8 0 -22 5 -30 10 -13 9 -13 10 0 10 8
0 22 -5 30 -10z m70 -10 c0 -3 -7 -14 -15 -24 -15 -20 -15 -20 -16 0 0 12 -2
14 -6 5 -3 -7 -13 -21 -22 -31 -9 -9 -22 -25 -29 -36 -6 -10 0 6 15 37 22 44
33 56 50 55 13 -1 23 -3 23 -6z m191 -7 c13 -16 12 -17 -3 -4 -10 7 -18 15
-18 17 0 8 8 3 21 -13z m-516 -231 c-3 -3 -11 0 -18 8 -9 10 -9 11 1 6 9 -5
12 3 11 31 0 30 -2 34 -9 18 -6 -13 -8 5 -8 55 1 72 1 73 8 25 l8 -50 0 65 c1
111 6 91 9 -34 2 -65 1 -121 -2 -124z m-165 218 c0 -5 -2 -10 -4 -10 -3 0 -8
5 -11 10 -3 6 -1 10 4 10 6 0 11 -4 11 -10z m410 6 c0 -2 -9 -6 -20 -9 -11 -3
-18 -1 -14 4 5 9 34 13 34 5z m-695 -46 c-3 -5 -14 -10 -23 -10 -15 0 -15 2
-2 10 20 13 33 13 25 0z m203 -25 c-3 -3 -9 2 -12 12 -6 14 -5 15 5 6 7 -7 10
-15 7 -18z m69 -7 c-3 -7 -5 -2 -5 12 0 14 2 19 5 13 2 -7 2 -19 0 -25z m665
-8 c-2 -16 -6 -30 -8 -30 -2 0 -4 14 -4 30 0 17 4 30 8 30 5 0 7 -13 4 -30z
m-305 -2 c-3 -8 -6 -5 -6 6 -1 11 2 17 5 13 3 -3 4 -12 1 -19z m253 18 c0 -3
-4 -8 -10 -11 -5 -3 -10 -1 -10 4 0 6 5 11 10 11 6 0 10 -2 10 -4z m-277 -43
c-4 -22 -2 -25 6 -13 8 12 11 7 11 -23 0 -21 -4 -36 -9 -33 -5 4 -12 0 -14 -6
-3 -7 -6 15 -6 50 -1 35 3 61 8 58 4 -3 6 -18 4 -33z m149 8 c2 -17 1 -28 -4
-25 -8 5 -12 54 -4 54 2 0 6 -13 8 -29z m-712 -16 c0 -8 -2 -15 -4 -15 -2 0
-6 7 -10 15 -3 8 -1 15 4 15 6 0 10 -7 10 -15z m-53 -17 c-3 -8 -6 -5 -6 6 -1
11 2 17 5 13 3 -3 4 -12 1 -19z m773 -15 c0 -5 -5 -15 -10 -23 -8 -12 -10 -11
-10 8 0 12 5 22 10 22 6 0 10 -3 10 -7z m167 -15 c-3 -8 -6 -5 -6 6 -1 11 2
17 5 13 3 -3 4 -12 1 -19z m-260 -20 c-3 -8 -6 -5 -6 6 -1 11 2 17 5 13 3 -3
4 -12 1 -19z m-675 -50 c2 -21 0 -38 -4 -38 -4 0 -8 21 -7 48 1 52 6 48 11
-10z m41 37 c-3 -9 -8 -14 -10 -11 -3 3 -2 9 2 15 9 16 15 13 8 -4z m239 -10
c3 -14 1 -25 -3 -25 -5 0 -9 11 -9 25 0 14 2 25 4 25 2 0 6 -11 8 -25z m488
11 c0 -3 -4 -8 -10 -11 -5 -3 -10 -1 -10 4 0 6 5 11 10 11 6 0 10 -2 10 -4z
m-76 -42 c3 -8 2 -12 -4 -9 -6 3 -10 10 -10 16 0 14 7 11 14 -7z m-644 -4 c0
-5 -5 -10 -11 -10 -5 0 -7 5 -4 10 3 6 8 10 11 10 2 0 4 -4 4 -10z m116 -39
c0 -11 -5 -17 -13 -14 -10 4 -11 9 -2 19 15 18 15 18 15 -5z m474 -11 c0 -5
-5 -10 -11 -10 -5 0 -7 5 -4 10 3 6 8 10 11 10 2 0 4 -4 4 -10z m257 4 c-3 -3
-12 -4 -19 -1 -8 3 -5 6 6 6 11 1 17 -2 13 -5z m-822 -24 c3 -5 2 -10 -4 -10
-5 0 -13 5 -16 10 -3 6 -2 10 4 10 5 0 13 -4 16 -10z m-45 -25 c0 -8 -2 -15
-4 -15 -2 0 -6 7 -10 15 -3 8 -1 15 4 15 6 0 10 -7 10 -15z m2 -47 c-7 -7 -12
-8 -12 -2 0 14 12 26 19 19 2 -3 -1 -11 -7 -17z m447 -55 c0 -29 -2 -33 -8
-18 -7 18 -4 55 5 55 2 0 4 -17 3 -37z m-100 -7 c-3 -3 -11 5 -18 17 -13 21
-12 21 5 5 10 -10 16 -20 13 -22z m-54 -16 c10 -11 16 -20 13 -20 -3 0 -13 9
-23 20 -10 11 -16 20 -13 20 3 0 13 -9 23 -20z m-170 -55 c10 -30 22 -55 27
-55 5 0 7 -4 4 -8 -3 -5 -19 -7 -36 -4 -23 3 -30 0 -30 -12 0 -20 -29 -21 -36
-1 -4 9 -19 15 -36 15 -23 0 -28 4 -24 18 3 9 10 36 16 60 11 41 11 42 54 42
l44 0 17 -55z m304 37 c5 -9 12 -34 16 -54 4 -21 13 -42 21 -49 8 -6 14 -21
14 -33 0 -17 2 -18 9 -6 6 8 7 18 5 22 -3 4 0 8 5 8 14 0 13 -10 -3 -40 l-14
-25 -13 30 c-7 17 -14 31 -15 33 -1 2 -14 5 -28 6 -17 2 -26 -2 -26 -10 0 -8
-9 -14 -20 -14 -11 0 -20 7 -20 15 0 9 -9 15 -25 15 -29 0 -31 10 -9 73 15 45
17 47 55 47 26 0 41 -5 48 -18z m341 -12 c4 -14 10 -40 13 -57 6 -32 6 -33
-28 -33 -24 0 -35 -5 -35 -15 0 -8 -4 -15 -10 -15 -5 0 -9 -3 -9 -7 1 -5 0
-26 -2 -48 -2 -32 -4 -27 -8 25 -5 58 -8 65 -29 68 -25 4 -24 11 4 80 13 31
16 33 56 30 35 -2 43 -7 48 -28z m127 -37 c-2 -16 -4 -5 -4 22 0 28 2 40 4 28
2 -13 2 -35 0 -50z m-1026 15 c6 -23 17 -47 24 -53 17 -13 25 -64 12 -72 -6
-4 -7 -1 -2 6 4 7 -9 2 -29 -11 -20 -13 -36 -29 -36 -37 0 -10 -3 -11 -14 -2
-7 6 -12 22 -10 36 1 14 -2 25 -7 25 -5 0 -9 7 -9 15 0 9 -12 18 -30 22 -33 6
-33 9 -4 80 13 29 18 33 54 33 38 0 40 -2 51 -42z m1191 -43 c35 -138 37 -125
-16 -125 l-46 0 0 -40 c0 -22 -4 -40 -10 -40 -5 0 -10 22 -10 49 0 28 -5 53
-11 57 -6 3 -8 17 -5 30 5 19 2 24 -13 24 -30 0 -31 10 -9 68 l20 53 41 -3 41
-3 18 -70z m182 69 c9 -3 16 -12 16 -18 0 -8 17 -12 48 -12 44 1 48 -1 63 -34
9 -19 19 -50 23 -67 5 -31 4 -33 -24 -33 -20 0 -30 -5 -30 -15 0 -8 -5 -15
-11 -15 -6 0 -8 -8 -5 -17 3 -10 2 -24 -3 -32 -6 -9 -10 -4 -13 18 -2 17 0 32
6 34 5 2 6 9 2 15 -10 16 -47 15 -43 0 1 -7 -9 -14 -23 -16 -14 -2 -28 -9 -32
-16 -4 -6 -8 6 -8 27 0 20 -4 37 -10 37 -5 0 -10 -11 -10 -25 0 -25 -13 -31
-44 -19 -12 4 -13 11 -5 32 5 14 7 32 4 40 -3 8 2 39 12 68 15 48 20 54 44 54
15 0 34 -3 43 -6z m-1579 -34 c5 -21 13 -30 26 -30 19 0 34 -25 53 -87 7 -21
4 -23 -28 -23 -25 0 -36 -4 -36 -15 0 -8 -4 -15 -9 -15 -5 0 -11 7 -15 15 -3
8 -12 15 -20 15 -7 0 -17 12 -22 28 -5 20 -8 23 -11 10 -3 -10 -13 -18 -24
-18 -10 0 -19 -7 -19 -15 0 -8 -7 -15 -14 -15 -10 0 -16 -14 -19 -42 -3 -35
-4 -34 -3 10 1 30 -3 52 -10 52 -5 0 -22 6 -37 13 -30 13 -30 26 -2 95 13 31
18 33 52 30 22 -2 38 2 41 10 2 7 21 12 47 12 40 0 44 -2 50 -30z m572 -7 c-3
-10 -5 -4 -5 12 0 17 2 24 5 18 2 -7 2 -21 0 -30z m40 -5 c-3 -8 -6 -5 -6 6
-1 11 2 17 5 13 3 -3 4 -12 1 -19z m-82 -83 c0 -14 -7 -20 -22 -21 -12 -1 -20
2 -18 7 3 4 1 10 -5 14 -17 10 0 26 23 23 14 -2 22 -10 22 -23z m615 5 c5 -8
10 -23 10 -33 0 -16 -2 -16 -29 -2 -18 9 -29 22 -28 33 1 23 33 24 47 2z
m-383 -22 c-3 -7 -5 -2 -5 12 0 14 2 19 5 13 2 -7 2 -19 0 -25z m-337 2 c0 10
3 11 11 3 8 -8 8 -17 -1 -33 -14 -25 -15 -25 -24 15 -5 22 -4 26 4 15 8 -13
10 -13 10 0z m310 -54 c0 -51 -6 -43 -14 19 -5 36 -4 46 3 35 6 -8 11 -33 11
-54z m68 44 c12 -20 37 -27 45 -12 2 4 2 1 1 -5 -2 -7 1 -13 6 -13 6 0 10 -7
10 -15 0 -10 -10 -15 -30 -15 -29 0 -35 -8 -32 -49 0 -10 -5 -8 -18 5 -16 16
-17 26 -10 64 4 25 6 48 4 52 -3 5 -1 8 3 8 5 0 14 -9 21 -20z m117 2 c-3 -3
-11 0 -18 7 -9 10 -8 11 6 5 10 -3 15 -9 12 -12z m150 8 c-3 -5 0 -7 7 -5 12
5 28 -17 56 -78 2 -5 -16 -7 -39 -5 -44 3 -44 3 -45 43 -1 44 2 55 17 55 6 0
7 -4 4 -10z m-840 -20 c-3 -5 -2 -10 4 -10 5 0 13 5 17 11 4 8 9 7 15 -2 10
-18 2 -29 -22 -29 -10 0 -19 -4 -19 -10 0 -5 -7 -10 -15 -10 -19 0 -19 16 0
24 8 3 15 9 14 13 -2 13 1 23 7 23 3 0 2 -4 -1 -10z m253 -21 c4 -11 6 -37 3
-57 l-4 -37 -10 38 c-5 21 -15 37 -23 37 -16 0 -16 2 -8 24 9 23 33 20 42 -5z
m686 -16 c12 -30 -6 -32 -30 -4 -13 16 -24 32 -24 35 0 11 49 -17 54 -31z
m-619 7 c4 -6 -7 -10 -24 -10 -17 0 -31 5 -31 10 0 6 11 10 24 10 14 0 28 -4
31 -10z m422 -22 c-3 -8 -6 -5 -6 6 -1 11 2 17 5 13 3 -3 4 -12 1 -19z m233 1
c0 -6 -4 -7 -10 -4 -5 3 -10 11 -10 16 0 6 5 7 10 4 6 -3 10 -11 10 -16z m170
-9 c0 -5 -4 -10 -10 -10 -5 0 -10 5 -10 10 0 6 5 10 10 10 6 0 10 -4 10 -10z
m167 -37 c-3 -10 -5 -4 -5 12 0 17 2 24 5 18 2 -7 2 -21 0 -30z m-1470 -5 c-3
-8 -6 -5 -6 6 -1 11 2 17 5 13 3 -3 4 -12 1 -19z m1027 -3 c-4 -8 -8 -15 -10
-15 -2 0 -4 7 -4 15 0 8 4 15 10 15 5 0 7 -7 4 -15z m311 -23 c24 3 49 2 57
-3 8 -6 1 -9 -21 -9 -27 0 -32 -3 -23 -12 16 -16 16 -33 0 -21 -7 6 -26 13
-41 17 -25 6 -28 5 -22 -14 10 -30 -1 -24 -19 10 -8 17 -11 30 -6 30 5 0 11
-6 13 -12 3 -7 6 1 7 17 2 20 4 24 7 11 4 -15 12 -18 48 -14z m-1412 1 c-7 -2
-21 -2 -30 0 -10 3 -4 5 12 5 17 0 24 -2 18 -5z m84 0 c-4 -3 -2 -12 3 -18 15
-18 -33 -25 -56 -8 -16 12 -15 13 14 7 18 -4 32 -3 31 2 -2 15 1 24 8 24 3 0
3 -3 0 -7z m720 1 c-3 -3 -12 -4 -19 -1 -8 3 -5 6 6 6 11 1 17 -2 13 -5z
m-672 -14 c-3 -5 -11 -10 -16 -10 -6 0 -7 5 -4 10 3 6 11 10 16 10 6 0 7 -4 4
-10z m138 3 c-7 -2 -21 -2 -30 0 -10 3 -4 5 12 5 17 0 24 -2 18 -5z m617 3 c0
-9 -39 -13 -51 -5 -10 6 -4 9 19 9 17 0 32 -2 32 -4z m120 -6 c0 -5 -17 -10
-37 -10 -28 0 -34 3 -23 10 20 13 60 13 60 0z m60 -4 c0 -9 -8 -12 -25 -8 -28
5 -24 22 6 22 10 0 19 -6 19 -14z m65 4 c-3 -5 -17 -10 -31 -10 -14 0 -22 4
-19 10 3 6 17 10 31 10 14 0 22 -4 19 -10z m425 1 c0 -5 20 -6 45 -3 30 3 45
1 45 -7 0 -11 -26 -16 -65 -12 -23 2 -57 31 -37 31 7 0 12 -4 12 -9z m-1620
-11 c0 -5 6 -7 13 -4 7 2 24 0 38 -5 22 -9 21 -10 -14 -10 -22 -1 -45 6 -53
14 -14 13 -14 15 0 15 9 0 16 -4 16 -10z m1320 0 c0 -5 -20 -10 -45 -10 -25 0
-45 5 -45 10 0 6 20 10 45 10 25 0 45 -4 45 -10z m255 -20 c3 -5 13 -6 22 -3
10 4 14 2 12 -6 -3 -7 -8 -12 -12 -12 -4 1 -26 1 -49 1 -40 1 -42 2 -24 15 23
17 42 19 51 5z m-275 -10 c0 -5 -5 -10 -11 -10 -5 0 -7 5 -4 10 3 6 8 10 11
10 2 0 4 -4 4 -10z m90 0 c0 -5 -16 -10 -35 -10 -19 0 -35 5 -35 10 0 6 16 10
35 10 19 0 35 -4 35 -10z m-1000 -20 c0 -5 -2 -10 -4 -10 -3 0 -8 5 -11 10 -3
6 -1 10 4 10 6 0 11 -4 11 -10z m1239 -2 c-2 -2 -17 -14 -34 -28 l-30 -25 24
28 c14 15 29 27 34 27 6 0 8 -1 6 -2z m-109 -22 c0 -2 -8 -10 -17 -17 -16 -13
-17 -12 -4 4 13 16 21 21 21 13z m-1322 -51 c-3 -3 -9 2 -12 12 -6 14 -5 15 5
6 7 -7 10 -15 7 -18z m1285 0 c-3 -9 -8 -14 -10 -11 -3 3 -2 9 2 15 9 16 15
13 8 -4z m-936 -62 c-2 -16 -4 -5 -4 22 0 28 2 40 4 28 2 -13 2 -35 0 -50z
m-351 -20 c-11 -11 -17 4 -9 23 7 18 8 18 11 1 2 -10 1 -21 -2 -24z m365 -98
c-4 -25 -6 -26 -9 -7 -2 12 -8 22 -13 22 -5 0 -9 5 -9 11 0 5 5 7 10 4 6 -4
10 8 11 27 l1 33 7 -30 c4 -16 4 -43 2 -60z m523 70 c7 -19 5 -19 -30 0 l-29
15 26 0 c15 0 29 -7 33 -15z m-889 -14 c3 -5 1 -12 -5 -16 -5 -3 -10 1 -10 9
0 18 6 21 15 7z m762 -13 c-3 -8 -6 -5 -6 6 -1 11 2 17 5 13 3 -3 4 -12 1 -19z
m113 7 c11 -13 7 -15 -25 -15 -32 0 -36 2 -25 15 7 8 18 15 25 15 7 0 18 -7
25 -15z m-273 -27 c2 -17 0 -19 -7 -8 -5 8 -6 18 -4 22 8 12 10 10 11 -14z
m70 -10 c-3 -8 -6 -5 -6 6 -1 11 2 17 5 13 3 -3 4 -12 1 -19z m183 8 c0 -2 -9
-6 -20 -9 -11 -3 -20 -1 -20 4 0 5 9 9 20 9 11 0 20 -2 20 -4z m-560 -10 c0
-2 -7 -7 -16 -10 -8 -3 -12 -2 -9 4 6 10 25 14 25 6z m589 0 c-2 -2 -15 -9
-29 -15 -24 -11 -24 -11 -6 3 16 13 49 24 35 12z m45 -5 c3 -5 -1 -11 -9 -15
-9 -3 -15 0 -15 9 0 16 16 20 24 6z m153 -13 c-3 -8 -6 -5 -6 6 -1 11 2 17 5
13 3 -3 4 -12 1 -19z m-347 2 c0 -5 -5 -10 -11 -10 -5 0 -7 5 -4 10 3 6 8 10
11 10 2 0 4 -4 4 -10z m-83 -22 c-3 -8 -6 -5 -6 6 -1 11 2 17 5 13 3 -3 4 -12
1 -19z m-167 -15 c0 -5 -5 -15 -10 -23 -7 -12 -9 -10 -7 8 1 19 17 33 17 15z
m137 -50 c-3 -10 -5 -2 -5 17 0 19 2 27 5 18 2 -10 2 -26 0 -35z m480 15 c-3
-8 -6 -5 -6 6 -1 11 2 17 5 13 3 -3 4 -12 1 -19z m124 -1 c-10 -9 -11 -8 -5 6
3 10 9 15 12 12 3 -3 0 -11 -7 -18z m36 -14 c-3 -10 -5 -4 -5 12 0 17 2 24 5
18 2 -7 2 -21 0 -30z m-897 17 c0 -5 -5 -10 -11 -10 -5 0 -7 5 -4 10 3 6 8 10
11 10 2 0 4 -4 4 -10z m291 -17 c-12 -20 -14 -14 -5 12 4 9 9 14 11 11 3 -2 0
-13 -6 -23z m-456 -13 c1 -10 -2 -17 -6 -14 -4 2 -7 13 -6 24 2 23 10 17 12
-10z m275 0 c0 -11 -2 -20 -4 -20 -2 0 -6 9 -9 20 -3 11 -1 20 4 20 5 0 9 -9
9 -20z m439 -2 c0 -22 -1 -22 -9 -3 -5 12 -9 14 -9 6 -1 -8 -4 -12 -7 -8 -8 7
4 27 17 27 5 0 9 -10 8 -22z m70 -102 c-9 -8 -10 -7 -5 7 3 10 7 42 8 70 l2
52 3 -59 c3 -37 0 -63 -8 -70z m113 94 c16 0 1 -13 -18 -16 -10 -2 -14 3 -10
13 3 8 7 20 7 26 1 7 3 4 6 -5 2 -10 9 -18 15 -18z m-462 -35 c0 -19 0 -38 1
-42 0 -4 -3 -9 -8 -10 -5 -2 -8 14 -7 34 1 21 -3 41 -9 45 -8 5 -6 8 6 8 13 0
17 -8 17 -35z m270 10 c5 3 8 -10 7 -30 -1 -19 -7 -37 -12 -39 -14 -5 -14 37
-1 46 7 5 7 8 -1 8 -7 0 -13 8 -12 18 0 10 3 12 6 4 2 -6 9 -10 13 -7z m-423
-7 c0 -7 4 -21 8 -30 4 -12 3 -18 -5 -18 -10 0 -10 -3 0 -15 10 -12 10 -15 -4
-15 -12 0 -16 10 -16 45 0 25 4 45 8 45 5 0 9 -6 9 -12z m35 -95 c2 -34 0 -59
-4 -55 -9 10 -11 37 -8 107 3 65 8 45 12 -52z m237 -10 c-3 -108 -17 -89 -17
25 -1 73 1 91 9 73 5 -14 9 -58 8 -98z m321 103 c0 -2 -7 -7 -16 -10 -8 -3
-12 -2 -9 4 6 10 25 14 25 6z m-492 -31 c-1 -13 -6 -21 -10 -17 -5 5 -6 16 -2
25 9 24 14 21 12 -8z m527 15 c3 -5 1 -10 -4 -10 -6 0 -11 5 -11 10 0 6 2 10
4 10 3 0 8 -4 11 -10z m-758 -32 c-3 -7 -5 -2 -5 12 0 14 2 19 5 13 2 -7 2
-19 0 -25z m323 7 c0 -8 -2 -15 -4 -15 -2 0 -6 7 -10 15 -3 8 -1 15 4 15 6 0
10 -7 10 -15z m120 -19 c0 -3 -4 -8 -10 -11 -5 -3 -10 -1 -10 4 0 6 5 11 10
11 6 0 10 -2 10 -4z m-158 -58 c-3 -61 -12 -60 -12 2 0 29 3 50 7 47 3 -4 6
-26 5 -49z m437 28 c10 -12 8 -13 -8 -9 -12 3 -21 9 -21 14 0 14 16 11 29 -5z
m-496 -77 c-5 -5 -6 11 -3 34 4 41 5 41 8 8 2 -18 0 -37 -5 -42z m492 51 c3
-5 2 -10 -4 -10 -5 0 -13 5 -16 10 -3 6 -2 10 4 10 5 0 13 -4 16 -10z m-560
-287 c0 -100 67 -160 166 -151 27 3 49 2 49 -3 0 -20 -66 -53 -114 -56 -97 -8
-171 64 -163 158 3 42 37 109 56 109 3 0 7 -26 6 -57z m170 6 c7 -23 -8 -53
-37 -73 -21 -15 -24 -14 -50 11 -25 24 -36 61 -22 75 3 3 27 6 54 6 39 0 51
-4 55 -19z m335 -129 c0 -5 -4 -10 -10 -10 -5 0 -10 5 -10 10 0 6 5 10 10 10
6 0 10 -4 10 -10z m-932 -258 c3 -28 7 -32 32 -32 25 0 29 4 32 33 2 20 8 32
18 32 12 0 16 -17 18 -82 3 -78 2 -83 -18 -83 -16 0 -20 6 -20 35 0 32 -2 35
-30 35 -28 0 -30 -3 -30 -35 0 -28 -4 -35 -20 -35 -18 0 -20 7 -20 86 0 76 2
85 18 82 11 -2 18 -14 20 -36z m232 18 c0 -17 -7 -20 -40 -20 -29 0 -40 -4
-40 -15 0 -10 11 -15 35 -15 24 0 35 -5 35 -15 0 -10 -11 -15 -35 -15 -28 0
-35 -4 -35 -20 0 -17 7 -20 40 -20 38 0 40 -2 40 -30 0 -16 -4 -30 -10 -30 -5
0 -10 5 -10 11 0 17 -45 5 -48 -13 -5 -28 34 -59 66 -52 57 12 63 16 58 30 -6
16 10 19 19 4 8 -13 -13 -50 -29 -50 -7 0 -13 -12 -13 -30 0 -24 5 -30 23 -30
27 0 34 17 34 86 0 41 4 54 15 54 12 0 15 -15 15 -74 0 -87 -8 -97 -77 -96
-26 0 -69 -2 -96 -6 -38 -5 -51 -3 -67 11 -26 24 -25 60 2 87 14 14 21 32 20
49 -2 15 1 30 7 33 6 4 3 14 -9 26 -25 25 -27 105 -4 138 12 17 25 22 60 22
37 0 44 -3 44 -20z m45 12 c6 -4 24 -27 40 -52 l30 -45 3 53 c2 37 7 52 18 52
11 0 14 -17 14 -85 0 -77 -2 -85 -19 -85 -11 0 -31 19 -50 48 l-31 47 0 -47
c0 -41 -3 -48 -20 -48 -18 0 -20 7 -20 78 0 88 7 105 35 84z m236 -13 c14 -14
19 -27 14 -42 -8 -28 -8 -35 0 -74 6 -27 4 -33 -9 -33 -10 0 -21 13 -27 30 -7
19 -18 30 -30 30 -14 0 -19 -7 -19 -30 0 -23 -4 -30 -20 -30 -18 0 -20 7 -20
78 0 43 3 82 7 85 15 16 83 7 104 -14z m69 -63 c0 -63 -4 -85 -14 -89 -23 -9
-26 2 -26 83 0 78 3 90 27 90 10 0 13 -21 13 -84z m134 63 c24 -19 27 -28 26
-73 -2 -63 7 -94 28 -98 9 -2 26 -34 43 -83 l27 -80 1 83 c1 71 3 82 19 82 9
0 29 -20 45 -45 16 -25 32 -47 35 -49 4 -2 7 17 7 42 0 36 4 47 18 50 15 3 17
-6 17 -82 0 -78 -2 -86 -19 -86 -12 0 -30 17 -48 45 -15 25 -30 45 -33 45 -3
0 -4 -20 -2 -45 l4 -45 -41 0 c-28 0 -44 5 -47 15 -4 9 -19 15 -35 15 -19 0
-29 -5 -29 -15 0 -8 -9 -15 -20 -15 -25 0 -25 1 5 89 13 41 23 77 20 81 -3 4
-28 10 -56 12 -63 6 -79 24 -79 89 0 39 5 51 26 68 34 27 54 26 88 0z m78 -46
c3 -66 4 -68 30 -71 27 -3 27 -3 30 65 2 55 6 68 21 71 15 3 17 -6 17 -81 0
-92 -3 -97 -59 -97 -50 0 -67 22 -74 96 -7 71 -4 84 18 84 10 0 15 -18 17 -67z
m228 48 c0 -16 -8 -20 -37 -23 -52 -4 -56 -28 -4 -28 30 0 41 -4 41 -15 0 -11
-11 -15 -41 -15 -33 0 -40 -3 -37 -17 2 -13 15 -19 46 -21 29 -2 42 -8 42 -18
0 -12 -12 -14 -57 -12 l-58 3 -3 70 c-3 80 7 95 70 95 31 0 38 -4 38 -19z
m508 -56 c-3 -3 -9 2 -12 12 -6 14 -5 15 5 6 7 -7 10 -15 7 -18z m52 -5 c0 -5
-5 -10 -11 -10 -5 0 -7 5 -4 10 3 6 8 10 11 10 2 0 4 -4 4 -10z m-1168 -177
c3 -66 4 -68 31 -71 l27 -3 0 70 c0 64 2 71 20 71 18 0 20 -7 20 -79 0 -47 -5
-83 -11 -87 -21 -13 -91 -5 -110 12 -15 14 -19 31 -19 86 0 61 2 68 20 68 17
0 19 -8 22 -67z m148 -3 l0 -70 46 0 45 0 -2 38 c-5 70 0 102 16 102 12 0 15
-16 15 -85 l0 -85 -70 0 c-83 0 -90 8 -90 98 0 61 4 72 27 72 10 0 13 -18 13
-70z m559 44 c25 -32 28 -90 5 -122 -11 -16 -25 -22 -52 -22 -46 0 -58 8 -72
45 -34 90 63 171 119 99z m288 -24 c2 -18 0 -18 -13 -6 -17 18 -18 26 -1 26 7
0 13 -9 14 -20z m-1459 -145 c-9 -9 -30 14 -23 25 6 9 10 8 17 -4 6 -10 8 -19
6 -21z m1292 26 c0 -14 -18 -23 -31 -15 -8 4 -7 9 2 15 18 11 29 11 29 0z
m-1342 -40 c3 -8 -1 -12 -9 -9 -7 2 -15 10 -17 17 -3 8 1 12 9 9 7 -2 15 -10
17 -17z m681 -75 c-6 -6 -13 -6 -21 2 -8 8 -8 15 2 28 13 15 15 14 21 -3 4
-10 3 -22 -2 -27z m1443 22 c-7 -7 -12 -8 -12 -2 0 14 12 26 19 19 2 -3 -1
-11 -7 -17z m-1852 -8 c0 -5 -4 -10 -9 -10 -6 0 -13 5 -16 10 -3 6 1 10 9 10
9 0 16 -4 16 -10z m1751 -33 c-8 -8 -11 -7 -11 4 0 20 13 34 18 19 3 -7 -1
-17 -7 -23z"/>
<path d="M2060 1899 c0 -5 5 -7 10 -4 6 3 10 8 10 11 0 2 -4 4 -10 4 -5 0 -10
-5 -10 -11z"/>
<path d="M1086 254 c-32 -31 -6 -74 43 -74 28 0 61 26 61 48 0 21 -23 25 -37
7 -12 -18 -13 -17 -13 8 0 31 -28 37 -54 11z"/>
<path d="M1390 470 c0 -21 8 -24 34 -14 25 10 19 34 -9 34 -18 0 -25 -5 -25
-20z"/>
<path d="M1589 463 c-14 -38 3 -76 34 -71 19 3 22 9 22 48 0 39 -3 45 -22 48
-17 3 -26 -4 -34 -25z"/>
<path d="M1706 275 c-10 -28 -7 -45 9 -45 12 0 14 7 9 28 -9 35 -10 36 -18 17z"/>
<path d="M1996 294 c-31 -31 -15 -94 25 -94 29 0 41 74 17 98 -16 16 -23 15
-42 -4z"/>
</g>
</svg>
