<?xml version="1.0" standalone="no"?>
<!DOCTYPE svg PUBLIC "-//W3C//DTD SVG 20010904//EN"
 "http://www.w3.org/TR/2001/REC-SVG-20010904/DTD/svg10.dtd">
<svg version="1.0" xmlns="http://www.w3.org/2000/svg"
 width="300.000000pt" height="300.000000pt" viewBox="0 0 300.000000 300.000000"
 preserveAspectRatio="xMidYMid meet">

<g transform="translate(0.000000,300.000000) scale(0.100000,-0.100000)"
fill="#000000" stroke="none">
<path d="M0 1500 l0 -1500 1500 0 1500 0 0 1500 0 1500 -1500 0 -1500 0 0
-1500z m1297 1444 c-3 -3 -12 -4 -19 -1 -8 3 -5 6 6 6 11 1 17 -2 13 -5z m-37
-310 c19 -3 89 -6 155 -8 66 -1 126 -5 133 -9 7 -5 12 -4 12 2 0 6 20 11 44
11 25 0 48 5 51 10 11 18 27 10 22 -11 -5 -19 -4 -20 12 -5 22 20 35 20 50 2
9 -11 9 -15 -1 -20 -9 -4 -9 -5 2 -5 45 3 74 -2 61 -10 -18 -12 67 -20 97 -10
12 5 22 5 22 0 0 -4 -10 -13 -22 -19 -19 -9 -20 -11 -5 -11 10 -1 16 -5 12
-10 -3 -5 2 -17 11 -25 25 -26 10 -44 -40 -48 -25 -2 -46 -1 -46 3 0 3 -13 4
-30 1 -20 -3 -30 0 -30 8 0 8 -4 9 -12 3 -7 -5 -26 -11 -43 -12 -16 -1 -39 -4
-50 -5 -11 -1 -24 0 -30 3 -22 12 -35 8 -42 -12 -8 -24 -5 -58 6 -70 4 -4 78
-7 164 -8 87 0 170 -5 186 -10 l30 -11 -17 -33 c-9 -19 -24 -36 -32 -38 -8 -3
-2 -5 14 -6 16 0 27 -3 24 -6 -3 -3 -90 -8 -194 -10 -104 -3 -189 -9 -189 -12
0 -3 45 -8 100 -10 58 -2 102 -8 106 -15 4 -6 19 -8 35 -5 27 5 28 4 9 -10
-19 -15 -19 -15 4 -10 14 4 20 2 15 -3 -5 -5 -68 -11 -139 -12 -78 -2 -130 -7
-130 -13 -1 -16 -24 -52 -25 -36 0 9 -4 10 -12 4 -7 -5 -24 -9 -38 -9 -20 1
-25 6 -23 24 2 19 -2 22 -32 22 -18 0 -37 5 -41 11 -3 6 -9 7 -13 3 -3 -5 -49
-6 -101 -3 l-95 5 80 4 c44 2 67 5 50 7 -16 3 -34 9 -40 14 -13 13 -28 11 -19
-2 7 -12 -111 -8 -123 5 -15 14 12 19 114 17 59 0 114 3 121 8 13 8 -199 21
-345 21 -39 0 -74 3 -76 8 -3 4 12 7 33 6 29 0 37 3 33 14 -4 8 -15 12 -29 9
-51 -9 -19 51 35 68 13 4 90 7 172 7 84 0 151 4 155 9 3 5 3 28 -1 49 -6 36
-10 40 -36 40 -18 0 -28 -4 -24 -10 4 -6 -14 -11 -47 -12 -166 -5 -227 -5
-223 2 3 4 -5 10 -18 13 -12 2 -31 8 -41 12 -14 6 -17 5 -12 -3 11 -17 -5 -15
-26 5 -17 15 -18 15 -19 -3 0 -14 -2 -15 -6 -4 -8 20 -29 40 -43 40 -6 0 -8 5
-5 10 4 6 11 7 17 4 8 -5 9 2 5 22 -16 71 -17 78 -11 67 8 -19 24 -16 25 5 0
10 3 12 6 5 2 -7 11 -13 19 -13 16 0 19 -16 4 -25 -18 -11 -10 -23 12 -17 16
4 19 2 13 -9 -7 -11 -6 -12 7 -2 8 7 19 9 23 5 5 -4 5 -1 1 6 -4 7 -1 12 8 12
10 0 17 9 17 23 l2 22 4 -22 c5 -27 9 -27 43 -8 l25 14 -23 1 c-14 0 -21 4
-17 11 4 5 19 7 34 4 15 -3 38 -1 52 4 23 10 45 9 129 -5z m-430 -34 c-8 -5
-7 -9 4 -13 20 -8 21 -53 2 -60 -8 -3 -16 -22 -18 -44 -2 -29 -7 -38 -20 -37
-10 1 -18 -2 -18 -7 0 -12 35 -29 62 -29 15 0 19 -3 11 -8 -10 -6 -9 -17 6
-45 10 -21 18 -55 17 -76 0 -22 1 -38 4 -36 3 2 6 -4 6 -14 0 -11 -9 -18 -25
-19 -14 -1 -28 -6 -31 -12 -7 -11 -50 -2 -50 11 0 5 -11 14 -24 19 -24 9 -24
10 -21 136 2 70 8 130 12 133 5 3 16 29 25 56 9 28 21 49 27 48 6 -2 11 1 11
7 0 5 7 7 16 3 11 -4 12 -8 4 -13z m1180 16 c0 -2 -7 -7 -16 -10 -8 -3 -12 -2
-9 4 6 10 25 14 25 6z m-1072 -339 c9 -3 4 -5 -12 -6 -29 -1 -29 -1 -22 45 3
26 7 54 8 63 1 9 3 -10 5 -41 3 -43 8 -58 21 -61z m1175 31 c4 -26 2 -38 -6
-38 -8 0 -13 22 -14 63 -2 64 7 52 20 -25z m87 42 c0 -5 -2 -10 -4 -10 -3 0
-8 5 -11 10 -3 6 -1 10 4 10 6 0 11 -4 11 -10z m-24 -66 c-8 -20 -26 -18 -26
4 0 15 2 15 11 2 8 -12 10 -12 8 5 -2 33 3 52 8 27 3 -13 2 -30 -1 -38z m-983
-91 c-7 -2 -19 -2 -25 0 -7 3 -2 5 12 5 14 0 19 -2 13 -5z m145 -180 c-10 -2
-28 -2 -40 0 -13 2 -5 4 17 4 22 1 32 -1 23 -4z m-195 -830 c-7 -2 -19 -2 -25
0 -7 3 -2 5 12 5 14 0 19 -2 13 -5z"/>
<path d="M1213 2613 c9 -2 14 -9 11 -15 -4 -6 2 -5 15 1 29 16 26 21 -11 20
-18 -1 -25 -3 -15 -6z"/>
<path d="M1148 2593 c7 -3 16 -2 19 1 4 3 -2 6 -13 5 -11 0 -14 -3 -6 -6z"/>
<path d="M810 2550 c0 -5 5 -10 10 -10 6 0 10 5 10 10 0 6 -4 10 -10 10 -5 0
-10 -4 -10 -10z"/>
</g>
</svg>
