<?xml version="1.0" standalone="no"?>
<!DOCTYPE svg PUBLIC "-//W3C//DTD SVG 20010904//EN"
 "http://www.w3.org/TR/2001/REC-SVG-20010904/DTD/svg10.dtd">
<svg version="1.0" xmlns="http://www.w3.org/2000/svg"
 width="300.000000pt" height="300.000000pt" viewBox="0 0 300.000000 300.000000"
 preserveAspectRatio="xMidYMid meet">

<g transform="translate(0.000000,300.000000) scale(0.100000,-0.100000)"
fill="#000000" stroke="none">
<path d="M2025 2949 c50 -29 100 -57 112 -63 13 -6 23 -14 23 -18 0 -5 6 -8
14 -8 7 0 24 -11 37 -24 23 -22 100 -76 174 -121 19 -12 54 -40 80 -63 25 -23
50 -42 56 -42 5 0 9 -4 9 -8 0 -5 18 -18 40 -31 22 -12 43 -28 47 -35 5 -8 29
-28 56 -46 75 -50 70 -54 -108 -70 -180 -16 -254 -29 -312 -56 -29 -13 -80
-31 -115 -38 -125 -29 -258 -88 -313 -139 -20 -18 -20 -19 -1 -33 11 -8 30
-14 43 -14 13 0 23 -4 23 -10 0 -5 -10 -10 -23 -10 -31 0 -268 -59 -281 -70
-16 -13 -283 -11 -341 2 -27 7 -59 18 -70 25 -41 27 -262 6 -303 -29 -21 -18
-110 -43 -120 -34 -3 4 -7 24 -7 44 -1 34 -4 38 -37 46 -20 5 -38 17 -41 26
-8 30 -210 40 -325 15 -87 -18 -170 -49 -217 -80 -19 -14 -53 -28 -75 -31 -35
-6 -39 -4 -43 17 -2 13 -5 -443 -6 -1013 l-1 -1038 650 0 c625 0 650 1 650 18
0 11 9 45 20 77 24 69 25 118 5 200 -8 33 -14 71 -14 85 l0 25 25 -29 c14 -16
23 -35 20 -42 -3 -8 -1 -26 4 -40 6 -14 13 -58 16 -97 4 -57 1 -84 -15 -131
-12 -33 -21 -61 -21 -63 0 -1 374 -3 830 -3 l830 0 0 1500 0 1500 -532 0 -533
0 90 -51z m-372 -1218 c9 -9 7 -10 -7 -5 -13 5 -17 4 -12 -4 4 -7 -7 -9 -36
-7 -53 5 -124 -28 -144 -67 -8 -15 -19 -28 -24 -28 -5 0 -15 -10 -21 -22 -12
-23 -12 -23 10 -4 13 12 21 15 21 7 0 -7 13 -1 31 13 32 27 87 37 72 14 -4 -7
-6 -23 -5 -34 4 -26 -28 -34 -127 -34 -48 1 -61 3 -49 10 9 6 30 34 47 63 37
66 70 97 113 108 42 10 116 5 131 -10z m-245 -201 c11 -19 10 -20 -27 -20 -43
0 -76 25 -44 33 38 10 59 6 71 -13z m-36 -64 c19 -8 65 -17 102 -21 77 -6 107
-17 85 -30 -7 -5 -14 -4 -16 2 -3 7 -16 6 -41 -2 -28 -10 -38 -19 -40 -38 -5
-39 31 -45 69 -12 43 35 49 24 10 -20 -36 -41 -41 -75 -12 -75 11 0 22 -4 25
-9 11 -17 -19 -19 -57 -4 -31 13 -40 23 -54 65 l-18 50 -7 -84 c-7 -80 -21
-178 -29 -207 -2 -9 5 -17 21 -20 42 -10 78 -40 73 -60 -3 -11 3 -24 16 -33
l20 -14 -23 -35 c-25 -36 -54 -63 -77 -72 -11 -4 -10 -6 3 -6 9 -1 35 -11 57
-23 67 -36 57 -66 -61 -180 -91 -88 -109 -90 -129 -15 -23 87 1 152 74 195 31
19 35 32 9 32 -11 0 -27 9 -38 21 -24 26 -80 22 -147 -10 -39 -19 -46 -28 -57
-69 -18 -64 -65 -146 -103 -178 -41 -34 -45 -18 -13 52 14 31 35 92 45 136 14
58 32 97 61 139 36 52 39 59 23 67 -25 15 -3 37 78 78 70 35 99 64 99 98 0 11
12 67 26 123 l27 103 -23 20 c-13 11 -36 20 -52 20 -28 0 -38 14 -15 23 23 10
54 7 89 -7z m-578 -316 c4 -5 4 -14 0 -22 -5 -7 -9 -44 -9 -81 0 -83 -5 -87
-107 -110 -71 -16 -365 -29 -350 -16 4 3 32 14 62 23 87 28 158 73 174 111 17
39 44 60 111 81 27 9 54 20 60 25 9 9 44 3 59 -11z m1270 -185 c50 -34 57 -36
107 -29 83 10 54 -3 -76 -36 -146 -37 -284 -57 -293 -44 -8 11 -75 44 -90 44
-5 0 -15 6 -21 14 -10 12 2 19 66 40 43 14 96 28 118 32 22 4 47 10 55 15 27
14 79 0 134 -36z m-276 -211 c47 -32 15 -74 -58 -74 -47 0 -56 51 -12 74 35
19 43 19 70 0z m-948 -228 l24 -14 -39 -10 c-76 -20 -159 -32 -219 -32 l-61 1
34 15 c19 8 73 21 119 29 47 8 88 17 90 20 9 8 26 5 52 -9z m1267 -184 c23 -8
-6 -42 -50 -61 -23 -10 -67 -20 -99 -24 -52 -5 -93 -23 -126 -54 -7 -7 -21
-13 -30 -14 -9 0 -43 -4 -75 -8 -31 -4 -53 -3 -49 1 10 10 102 46 162 63 59
17 100 36 100 47 0 5 11 20 25 34 22 22 33 25 78 23 28 -1 58 -4 64 -7z"/>
</g>
</svg>
