<?xml version="1.0" standalone="no"?>
<!DOCTYPE svg PUBLIC "-//W3C//DTD SVG 20010904//EN"
 "http://www.w3.org/TR/2001/REC-SVG-20010904/DTD/svg10.dtd">
<svg version="1.0" xmlns="http://www.w3.org/2000/svg"
 width="300.000000pt" height="300.000000pt" viewBox="0 0 300.000000 300.000000"
 preserveAspectRatio="xMidYMid meet">

<g transform="translate(0.000000,300.000000) scale(0.100000,-0.100000)"
fill="#000000" stroke="none">
<path d="M0 2259 c0 -489 3 -747 10 -760 8 -14 18 -18 44 -14 35 4 75 -23 62
-43 -6 -10 28 -77 50 -99 8 -8 14 -22 14 -32 0 -10 16 -31 35 -47 19 -16 35
-36 35 -45 0 -9 10 -29 22 -45 13 -15 21 -37 20 -47 -2 -11 1 -16 6 -13 6 4 6
-7 0 -32 -23 -90 -23 -91 17 -108 20 -8 47 -14 59 -12 11 2 26 -4 33 -12 11
-13 12 -12 13 7 0 24 26 43 59 43 28 0 51 38 51 86 0 34 4 43 26 52 26 12 69
7 92 -11 21 -16 62 8 68 42 7 34 46 72 106 103 46 24 92 25 134 3 32 -16 47
-11 39 15 -3 10 -1 21 5 25 8 5 8 10 0 20 -8 10 -4 17 20 29 17 8 38 12 45 9
8 -3 17 2 20 10 4 8 18 14 33 15 47 0 51 2 57 22 6 18 15 20 88 20 80 -1 117
-13 117 -38 0 -6 9 -14 20 -17 11 -3 20 -15 20 -25 0 -26 16 -33 33 -15 9 8
21 15 27 15 19 0 89 -53 95 -72 6 -18 16 -20 99 -19 28 0 55 -3 60 -8 6 -5 22
-12 36 -16 14 -4 34 -18 45 -31 16 -19 31 -24 70 -25 28 -1 60 1 73 5 13 5 29
3 37 -4 7 -6 19 -10 27 -9 26 3 37 -1 57 -22 11 -12 37 -23 60 -26 29 -4 45
-12 53 -27 6 -11 10 -23 9 -26 -1 -3 6 -7 16 -10 34 -9 53 -26 58 -50 5 -28
14 -37 40 -42 12 -2 19 -10 17 -20 -1 -9 2 -19 7 -23 6 -3 8 -12 4 -20 -7 -19
6 -19 30 0 11 7 24 12 30 9 7 -2 38 -6 70 -8 32 -2 60 -6 63 -9 10 -9 32 18
40 47 3 14 10 23 15 20 5 -3 6 -11 3 -17 -4 -7 -3 -9 1 -4 5 4 16 0 25 -8 12
-11 15 -24 10 -48 -11 -53 -42 -117 -57 -117 -9 0 -13 -8 -11 -22 3 -24 29
-29 76 -14 22 7 31 -7 12 -19 -6 -4 -9 -18 -8 -33 2 -19 -3 -29 -21 -38 -13
-7 -28 -20 -33 -28 -5 -9 -19 -16 -32 -16 -31 0 -53 -41 -38 -74 8 -18 16 -22
34 -19 18 3 27 -2 37 -20 7 -14 10 -30 7 -36 -4 -7 1 -11 12 -11 10 0 27 -8
36 -19 15 -16 32 -18 154 -18 75 0 130 2 121 4 -11 3 -15 11 -12 23 9 35 -14
60 -58 60 l-40 0 28 39 c15 22 36 44 46 51 16 10 18 9 12 -9 -5 -16 -3 -20 9
-15 11 4 20 -3 28 -23 7 -15 17 -31 22 -35 6 -4 10 -19 11 -35 0 -18 5 -28 15
-28 12 0 16 16 18 72 3 65 1 73 -23 97 -22 22 -25 33 -21 62 4 21 2 33 -4 29
-14 -8 -53 34 -46 51 3 8 0 14 -6 14 -7 0 -6 5 2 15 19 23 71 19 77 -5 3 -11
9 -17 14 -14 5 3 8 101 8 217 -1 117 -3 204 -6 194 -3 -10 -11 -16 -18 -13 -7
2 -22 -2 -33 -9 -10 -8 -22 -11 -26 -8 -3 3 -6 1 -6 -5 0 -7 4 -12 8 -12 9 0
6 -89 -3 -99 -4 -3 -24 5 -46 17 -38 22 -39 22 -39 3 0 -11 8 -22 18 -24 11
-3 8 -5 -9 -6 -14 0 -34 5 -44 13 -14 10 -26 11 -44 4 -17 -6 -27 -6 -29 1 -2
6 -12 11 -23 11 -34 0 -20 27 23 44 30 13 43 14 48 5 6 -8 9 -8 14 0 4 6 21
11 38 11 21 0 31 -6 35 -20 12 -45 40 -11 38 47 -1 40 -26 93 -44 93 -12 0
-57 -44 -63 -61 -4 -11 -9 -11 -26 4 -26 23 -62 14 -62 -15 0 -18 -4 -19 -47
-14 -70 8 -80 11 -97 25 -14 12 -16 10 -16 -10 0 -48 10 -67 32 -61 18 4 20 2
16 -16 -4 -12 -2 -24 2 -27 4 -3 6 -14 3 -26 -4 -14 -12 -19 -27 -17 -11 2
-20 9 -18 16 1 7 -9 18 -23 24 -14 6 -25 15 -25 20 0 4 -9 8 -20 8 -11 0 -20
7 -20 15 0 10 -14 17 -40 21 -29 5 -49 17 -72 43 -29 32 -30 36 -12 39 59 9
65 12 58 34 -5 16 -3 20 9 15 8 -3 36 1 62 9 35 10 52 11 67 3 25 -14 67 -3
89 22 11 13 29 19 55 19 22 0 55 2 74 5 123 16 143 25 154 71 4 13 13 24 22
24 9 0 29 9 45 21 l29 20 0 780 0 779 -1500 0 -1500 0 0 -741z m2950 701 c0
-5 -4 -10 -10 -10 -5 0 -10 5 -10 10 0 6 5 10 10 10 6 0 10 -4 10 -10z m-2490
-220 c0 -5 -4 -10 -10 -10 -5 0 -10 5 -10 10 0 6 5 10 10 10 6 0 10 -4 10 -10z
m840 -24 c0 -3 -4 -8 -10 -11 -5 -3 -10 -1 -10 4 0 6 5 11 10 11 6 0 10 -2 10
-4z m-1019 -96 c23 -23 29 -37 27 -65 -1 -20 -7 -35 -14 -35 -7 0 -20 -7 -29
-16 -19 -19 -69 -13 -97 13 -34 30 -18 105 25 123 38 15 58 11 88 -20z m1687
-53 c2 -12 -3 -17 -17 -17 -15 0 -21 6 -21 21 0 25 33 22 38 -4z m936 -399
c15 -24 -10 -51 -35 -37 -22 11 -24 30 -7 47 15 15 28 11 42 -10z m-2286 -419
c4 -24 -30 -34 -45 -13 -7 9 -10 21 -7 26 9 15 49 5 52 -13z m607 -199 c3 -5
-1 -10 -10 -10 -9 0 -13 5 -10 10 3 6 8 10 10 10 2 0 7 -4 10 -10z m1375 -420
c0 -5 -4 -10 -10 -10 -5 0 -10 5 -10 10 0 6 5 10 10 10 6 0 10 -4 10 -10z
m233 -169 c-17 -16 -28 -33 -25 -37 4 -4 1 -4 -5 0 -20 11 -15 36 7 36 11 0
23 7 26 15 4 8 11 15 18 15 6 0 -3 -14 -21 -29z m-9 -208 c4 -5 17 -8 29 -8
12 0 23 -6 23 -12 1 -7 2 -17 3 -23 0 -5 8 -10 17 -10 10 0 14 -7 12 -22 -2
-17 -10 -23 -30 -23 -14 0 -30 -3 -34 -7 -4 -5 -3 -8 3 -8 5 0 10 -7 10 -15 0
-8 -4 -15 -9 -15 -4 0 -8 4 -8 10 0 11 -28 9 -47 -3 -20 -13 -15 8 7 28 26 24
25 43 -1 47 -31 4 -46 31 -28 51 15 17 41 22 53 10z m-114 -193 c0 -11 -6 -20
-14 -20 -21 0 -31 21 -15 31 22 14 29 11 29 -11z m79 -26 c10 -10 9 -70 -2
-84 -10 -13 -10 -13 5 -2 14 11 18 11 25 -1 4 -8 15 -17 23 -20 8 -3 -4 -6
-27 -6 -23 -1 -45 4 -48 9 -4 6 -11 8 -16 5 -5 -3 -6 1 -3 9 3 9 11 16 18 16
7 0 8 3 1 8 -6 4 -16 24 -22 45 l-12 39 27 -7 c15 -4 29 -9 31 -11z"/>
<path d="M45 1318 c0 -31 4 -43 15 -43 8 0 24 -19 36 -43 18 -36 22 -40 27
-22 3 13 0 20 -9 20 -8 0 -14 10 -14 23 1 50 -7 77 -25 92 -29 21 -30 20 -30
-27z"/>
<path d="M1125 1327 c7 -52 63 -78 84 -38 13 23 5 31 -31 31 -15 0 -28 5 -28
11 0 5 -4 8 -9 5 -5 -4 -12 0 -15 6 -3 7 -3 1 -1 -15z"/>
<path d="M0 1255 c0 -25 2 -45 4 -45 2 0 11 11 20 24 17 27 13 51 -10 60 -11
4 -14 -5 -14 -39z"/>
<path d="M1351 1283 c-1 -7 6 -16 15 -21 13 -7 11 -11 -13 -20 -15 -6 -37 -12
-48 -14 -16 -3 -19 -10 -17 -32 4 -27 2 -28 -27 -24 -16 2 -28 1 -25 -4 3 -5
-6 -7 -20 -4 -14 3 -26 1 -26 -3 0 -4 -15 -6 -32 -4 -26 4 -30 2 -18 -6 8 -6
31 -9 51 -5 44 7 59 -8 24 -24 -27 -13 -46 -8 -86 19 -19 13 -29 15 -37 7 -8
-8 -23 -7 -57 2 -40 11 -48 11 -63 -4 -19 -17 -92 -23 -92 -7 0 15 29 33 45
27 9 -3 15 0 15 10 0 8 4 12 10 9 6 -3 7 1 4 9 -7 18 -24 22 -24 6 0 -13 -36
-13 -60 0 -16 9 -18 8 -14 -5 5 -13 2 -15 -17 -10 -20 5 -26 0 -37 -24 -8 -17
-11 -35 -7 -41 3 -5 -1 -10 -9 -10 -11 0 -16 -9 -16 -28 0 -15 -4 -32 -10 -38
-12 -12 -1 -27 33 -42 15 -6 26 -17 25 -23 -2 -6 3 -14 11 -17 9 -3 11 0 7 7
-10 15 13 43 30 37 7 -3 15 2 18 10 4 10 13 13 25 9 11 -3 36 1 56 10 50 20
71 19 88 -5 7 -11 22 -21 33 -23 28 -6 71 -25 77 -34 13 -21 -11 -32 -81 -37
-12 0 -25 -9 -28 -18 -6 -20 -19 -23 -29 -8 -9 15 -25 12 -25 -6 0 -9 -5 -12
-12 -8 -6 4 -16 0 -22 -8 -12 -16 -76 -30 -76 -16 0 4 -5 8 -11 8 -5 0 -7 -5
-3 -12 4 -7 3 -8 -5 -4 -6 4 -34 0 -61 -9 -27 -9 -55 -15 -62 -14 -7 1 -22 1
-33 0 -17 -1 -18 -3 -5 -11 12 -8 11 -10 -7 -10 -14 0 -23 -6 -23 -15 0 -18
-36 -20 -47 -2 -9 14 -43 19 -43 6 0 -5 -10 -7 -23 -4 -18 5 -23 2 -24 -17 -2
-21 1 -23 50 -23 46 0 52 -3 55 -22 2 -14 8 -20 17 -17 8 3 22 -3 31 -15 10
-11 21 -18 26 -15 4 3 16 0 27 -5 15 -8 19 -22 19 -59 1 -31 -4 -49 -11 -50
-7 -1 -24 -4 -38 -7 -16 -4 -31 -2 -40 7 -8 8 -20 13 -27 10 -7 -2 -10 2 -6
11 8 21 -33 56 -57 50 -15 -4 -18 -2 -13 12 6 14 3 16 -15 10 -29 -9 -61 -41
-61 -59 0 -21 19 -30 62 -31 42 -1 80 -25 40 -25 -13 0 -39 -7 -59 -15 -26
-11 -40 -12 -47 -5 -8 8 -6 14 4 20 9 6 10 10 3 10 -19 0 -32 -32 -29 -70 4
-49 5 -50 20 -44 7 3 16 -2 19 -10 9 -23 -22 -8 -60 28 -39 37 -41 50 -11 70
21 15 20 15 -18 11 -21 -3 -54 -10 -73 -17 -30 -9 -37 -8 -50 9 -26 32 -52 36
-76 13 -20 -19 -26 -20 -44 -8 -12 7 -21 18 -21 25 0 20 -21 26 -46 12 -13 -7
-27 -9 -31 -4 -5 4 -3 10 4 12 21 8 3 30 -21 26 -13 -3 -28 2 -35 11 -8 9 -17
16 -22 16 -5 0 -9 -56 -9 -125 l0 -125 27 0 c15 0 37 10 50 22 26 25 103 32
110 11 3 -8 24 -10 61 -7 37 3 50 1 37 -4 -35 -16 36 -21 270 -21 205 0 286 5
424 29 31 6 59 6 65 1 33 -27 203 -33 776 -27 322 3 592 6 600 6 10 1 15 13
16 38 1 20 5 47 9 59 6 17 1 24 -24 37 -17 9 -38 30 -46 46 -15 28 -14 30 4
30 10 0 21 -7 25 -15 3 -8 9 -15 14 -15 9 0 32 43 32 60 0 16 -27 11 -34 -5
-8 -21 -49 -19 -76 5 -13 11 -31 20 -42 20 -10 0 -18 3 -18 8 0 4 -12 12 -26
19 -15 7 -24 10 -21 6 4 -3 -1 -12 -11 -20 -16 -12 -16 -13 1 -7 13 5 17 1 17
-21 0 -14 -4 -24 -9 -21 -5 4 -11 1 -13 -6 -3 -7 -12 -9 -23 -4 -16 6 -17 9
-5 16 19 12 15 14 -52 27 -35 7 -69 8 -87 3 -19 -5 -33 -4 -41 3 -10 9 -14 9
-17 -1 -3 -6 -9 -10 -14 -6 -5 3 -9 -2 -9 -10 0 -8 -9 -20 -20 -26 -11 -6 -20
-17 -20 -25 0 -26 -31 -47 -59 -39 -52 14 -125 11 -139 -5 -11 -15 -13 -14
-22 0 -12 20 -54 13 -115 -20 -52 -28 -60 -9 -14 33 19 17 33 34 32 38 -4 11
70 68 89 68 24 0 24 40 1 41 -10 1 -28 3 -40 4 -13 1 -23 -1 -23 -5 0 -4 -16
-11 -35 -14 -19 -4 -50 -22 -70 -42 -20 -20 -40 -33 -43 -29 -4 3 -1 10 6 14
7 4 14 19 14 32 2 25 36 71 48 64 4 -3 15 4 25 15 10 11 26 20 35 20 10 0 29
9 44 21 18 14 35 19 50 15 31 -8 38 11 20 53 -12 29 -17 33 -42 27 -116 -26
-132 -27 -147 -12 -16 15 -36 58 -42 90 -2 10 -10 24 -19 30 -9 7 -12 18 -8
29 7 20 20 22 27 3 3 -7 14 -16 25 -18 19 -5 19 -4 6 28 -8 18 -14 43 -14 54
0 11 -4 20 -9 20 -5 0 -12 12 -16 27 -3 15 -15 33 -26 41 -10 7 -19 20 -19 28
0 8 -9 14 -21 14 -12 0 -23 8 -26 20 -3 11 -13 20 -23 20 -10 0 -21 6 -23 13
-4 9 -6 9 -6 0z m44 -53 c3 -5 -1 -10 -9 -10 -9 0 -16 5 -16 10 0 6 4 10 9 10
6 0 13 -4 16 -10z m165 -380 c0 -5 -2 -10 -4 -10 -3 0 -8 5 -11 10 -3 6 -1 10
4 10 6 0 11 -4 11 -10z m30 -10 c0 -5 -4 -10 -10 -10 -5 0 -10 5 -10 10 0 6 5
10 10 10 6 0 10 -4 10 -10z m40 6 c0 -2 -7 -6 -15 -10 -8 -3 -15 -1 -15 4 0 6
7 10 15 10 8 0 15 -2 15 -4z m-110 -325 c0 -5 -14 -14 -30 -20 -28 -9 -29 -9
-20 9 11 20 50 28 50 11z"/>
<path d="M1520 1216 c0 -8 5 -18 10 -21 6 -3 10 -1 10 4 0 6 7 11 16 11 8 0
12 5 9 10 -9 15 -45 12 -45 -4z"/>
<path d="M2402 1204 c-11 -19 -4 -54 10 -54 21 0 35 26 27 48 -10 26 -24 28
-37 6z"/>
<path d="M91 1184 c0 -11 3 -14 6 -6 3 7 2 16 -1 19 -3 4 -6 -2 -5 -13z"/>
<path d="M2370 1181 c0 -5 5 -13 10 -16 6 -3 10 -2 10 4 0 5 -4 13 -10 16 -5
3 -10 2 -10 -4z"/>
<path d="M1540 1161 c0 -12 9 -20 25 -23 28 -6 29 -4 15 23 -14 24 -40 25 -40
0z"/>
<path d="M1670 1083 c0 -7 -6 -10 -14 -7 -7 3 -26 -6 -42 -19 -16 -13 -35 -22
-41 -20 -7 3 -13 0 -13 -5 0 -6 10 -14 21 -17 17 -6 19 -9 8 -16 -8 -5 -10 -9
-5 -9 5 0 2 -7 -5 -17 -13 -15 -12 -15 18 0 17 9 37 23 45 30 18 18 68 31 68
17 0 -6 5 -8 10 -5 16 10 0 27 -20 22 -12 -3 -17 0 -13 9 2 7 0 21 -6 31 -6
10 -11 13 -11 6z"/>
<path d="M12 1028 c-24 -24 -14 -73 18 -97 17 -12 28 -26 25 -32 -7 -11 15
-12 33 -1 12 8 11 66 -1 79 -4 3 -7 14 -7 24 0 10 -9 23 -19 29 -25 13 -34 13
-49 -2z"/>
<path d="M2179 973 c-11 -15 -11 -16 1 -5 19 16 28 15 32 -4 3 -13 6 -13 27 5
l24 21 -35 0 c-22 0 -41 -7 -49 -17z"/>
<path d="M2130 960 c0 -5 7 -10 16 -10 8 0 12 5 9 10 -3 6 -10 10 -16 10 -5 0
-9 -4 -9 -10z"/>
<path d="M655 950 c-4 -6 -10 -8 -15 -5 -5 3 -12 0 -16 -6 -5 -9 1 -10 19 -5
14 3 27 3 30 -2 2 -4 2 -2 1 5 -2 6 2 14 9 17 7 2 5 5 -5 5 -9 1 -20 -4 -23
-9z"/>
<path d="M650 886 c0 -2 7 -7 16 -10 8 -3 12 -2 9 4 -6 10 -25 14 -25 6z"/>
<path d="M1950 867 c0 -11 -8 -16 -22 -15 -13 0 -27 0 -33 -2 -5 -1 -17 -2
-25 -1 -13 1 -13 2 0 11 8 5 11 10 5 10 -15 -1 -55 -37 -55 -50 0 -6 5 -8 11
-4 8 5 8 1 0 -14 -6 -11 -11 -23 -11 -26 0 -10 35 7 53 26 20 20 77 24 95 6 8
-8 15 -8 25 0 17 15 10 65 -8 58 -7 -2 -18 1 -24 7 -8 8 -11 7 -11 -6z m40
-21 c0 -3 -4 -8 -10 -11 -5 -3 -10 -1 -10 4 0 6 5 11 10 11 6 0 10 -2 10 -4z"/>
<path d="M2095 810 c3 -5 8 -10 11 -10 2 0 4 5 4 10 0 6 -5 10 -11 10 -5 0 -7
-4 -4 -10z"/>
<path d="M2157 809 c7 -7 15 -10 18 -7 3 3 -2 9 -12 12 -14 6 -15 5 -6 -5z"/>
<path d="M2223 779 c1 -21 32 -32 46 -15 11 13 -6 30 -31 32 -10 1 -16 -5 -15
-17z"/>
<path d="M2185 780 c3 -5 8 -10 11 -10 2 0 4 5 4 10 0 6 -5 10 -11 10 -5 0 -7
-4 -4 -10z"/>
<path d="M2312 770 c-16 -26 -15 -30 3 -30 8 0 15 7 15 15 0 8 5 15 10 15 6 0
10 5 10 10 0 17 -25 11 -38 -10z"/>
<path d="M1893 769 c-14 -14 3 -59 22 -59 17 0 27 41 13 57 -13 16 -21 16 -35
2z"/>
<path d="M1710 740 c0 -6 4 -9 9 -6 5 4 12 1 14 -4 3 -6 4 -5 3 2 -3 15 -26
23 -26 8z"/>
<path d="M599 676 c16 -19 44 -21 39 -3 -3 6 -15 14 -28 15 -21 3 -22 2 -11
-12z"/>
<path d="M706 644 c-4 -9 -1 -23 6 -31 10 -12 14 -11 29 8 10 13 15 27 13 31
-9 14 -42 8 -48 -8z"/>
<path d="M2445 480 c-3 -5 -1 -10 4 -10 6 0 11 5 11 10 0 6 -2 10 -4 10 -3 0
-8 -4 -11 -10z"/>
<path d="M0 187 l0 -187 1294 0 1294 0 4 25 c3 13 0 26 -6 29 -7 3 -6 8 4 15
10 7 11 11 3 11 -25 0 -13 19 15 23 15 2 -91 5 -235 6 l-263 1 0 70 0 70 263
1 c144 1 252 4 240 6 -12 2 -27 11 -33 19 -10 11 -9 14 5 14 10 0 15 3 12 7
-4 3 -1 13 6 21 10 13 9 15 -4 10 -9 -3 -22 -2 -30 2 -16 10 -4 17 46 23 17 2
-400 5 -925 6 -525 1 -1120 4 -1322 8 l-368 6 0 -186z m150 5 c1 -12 5 -10 15
8 l14 25 9 -25 9 -25 7 23 c11 35 26 26 15 -10 -5 -18 -9 -34 -9 -35 0 -2 -4
-3 -9 -3 -5 0 -13 10 -17 22 l-7 23 -8 -23 c-11 -28 -25 -28 -33 1 -9 33 -7
49 4 42 6 -3 10 -14 10 -23z m146 -2 c8 0 14 7 14 15 0 8 5 15 10 15 6 0 10
-16 10 -35 0 -19 -4 -35 -10 -35 -5 0 -10 7 -10 15 0 8 -7 15 -15 15 -8 0 -15
-7 -15 -15 0 -8 -4 -15 -10 -15 -12 0 -14 53 -2 64 4 4 8 1 10 -8 2 -9 10 -16
18 -16z m94 -5 c0 -19 -4 -35 -10 -35 -5 0 -10 16 -10 35 0 19 5 35 10 35 6 0
10 -16 10 -35z m82 23 c-7 -7 -12 -22 -12 -35 0 -13 -4 -23 -10 -23 -5 0 -10
13 -10 29 0 16 -6 32 -12 34 -7 3 3 6 22 6 26 1 31 -2 22 -11z m72 -3 c-19
-14 -19 -14 1 -15 20 -1 20 -1 0 -12 -19 -11 -19 -11 0 -19 19 -7 18 -8 -2 -8
-23 -1 -25 2 -25 39 0 30 0 30 24 30 21 0 21 0 2 -15z m135 -7 l15 -23 7 25
c6 22 7 20 8 -12 1 -38 -14 -52 -25 -23 -4 8 -11 15 -16 15 -6 0 -8 -7 -4 -15
3 -8 1 -15 -4 -15 -6 0 -10 16 -10 35 0 40 9 44 29 13z m139 -7 c5 -32 -23
-54 -49 -40 -19 10 -26 49 -12 63 4 4 19 6 33 4 18 -2 26 -10 28 -27z m62 -6
c0 -19 -4 -35 -10 -35 -5 0 -10 16 -10 35 0 19 5 35 10 35 6 0 10 -16 10 -35z
m80 25 c0 -5 -5 -10 -12 -10 -6 0 -3 -6 7 -14 16 -12 17 -16 6 -29 -7 -9 -19
-13 -27 -10 -20 8 -17 23 4 17 15 -5 15 -4 -2 10 -10 8 -16 22 -13 31 7 17 37
21 37 5z m90 0 c0 -5 -8 -10 -17 -11 -12 0 -13 -2 -5 -6 10 -4 10 -8 1 -19 -9
-11 -8 -14 5 -14 9 0 16 -4 16 -9 0 -5 -8 -8 -17 -6 -10 2 -21 4 -25 4 -5 1
-8 17 -8 36 0 31 3 35 25 35 14 0 25 -4 25 -10z"/>
<path d="M776 203 c-12 -12 -6 -43 9 -43 8 0 15 9 15 19 0 21 -13 34 -24 24z"/>
<path d="M2120 180 l0 -63 188 6 c103 4 208 6 233 7 46 0 47 1 54 36 7 39 -1
57 -15 34 -8 -13 -10 -12 -10 2 0 9 6 19 13 21 6 3 -13 6 -43 6 -30 1 -137 4
-237 8 l-183 6 0 -63z m60 21 c0 -5 3 -16 6 -25 4 -11 1 -16 -11 -16 -9 0 -14
4 -10 9 3 5 1 12 -5 16 -6 4 -8 11 -5 16 8 12 25 12 25 0z m54 -13 c-4 -6 0
-14 7 -19 11 -7 10 -9 -3 -9 -13 0 -18 8 -18 26 0 14 4 23 10 19 6 -4 7 -11 4
-17z m72 5 c-2 -10 2 -21 8 -25 6 -5 2 -8 -11 -8 -18 0 -23 6 -23 25 0 15 6
25 14 25 8 0 13 -8 12 -17z m70 -8 c-2 -14 -6 -25 -9 -25 -4 0 -11 0 -17 0
-11 0 -14 33 -3 43 15 16 31 6 29 -18z m69 15 c7 -12 -12 -40 -26 -40 -5 0 -9
11 -9 25 0 25 23 35 35 15z m69 -15 c-9 -28 -24 -43 -24 -23 0 9 -2 23 -5 30
-4 9 2 14 15 14 15 0 19 -5 14 -21z m66 -31 c0 -8 -19 -13 -24 -6 -3 5 1 9 9
9 8 0 15 -2 15 -3z"/>
</g>
</svg>
