<?xml version="1.0" standalone="no"?>
<!DOCTYPE svg PUBLIC "-//W3C//DTD SVG 20010904//EN"
 "http://www.w3.org/TR/2001/REC-SVG-20010904/DTD/svg10.dtd">
<svg version="1.0" xmlns="http://www.w3.org/2000/svg"
 width="300.000000pt" height="300.000000pt" viewBox="0 0 300.000000 300.000000"
 preserveAspectRatio="xMidYMid meet">

<g transform="translate(0.000000,300.000000) scale(0.100000,-0.100000)"
fill="#000000" stroke="none">
<path d="M183 2403 c9 -2 25 -2 35 0 9 3 1 5 -18 5 -19 0 -27 -2 -17 -5z"/>
<path d="M240 2400 c0 -4 35 -11 77 -15 42 -4 102 -14 132 -21 54 -14 131 -58
131 -75 0 -16 -45 -5 -70 16 -14 12 -43 29 -65 37 -65 25 -338 54 -404 43
l-41 -7 0 -396 0 -397 78 78 c42 42 82 77 87 77 6 0 21 -7 34 -16 l23 -17
-113 -116 c-106 -107 -107 -109 -18 -23 53 50 99 92 103 92 4 0 16 -9 28 -20
22 -20 19 -23 -17 -21 -11 1 -29 -5 -40 -14 -20 -15 -20 -15 4 -35 l24 -20
-97 -98 c-94 -96 -96 -99 -96 -146 0 -26 4 -45 9 -41 5 3 12 1 16 -5 3 -5 -2
-11 -12 -11 -10 -1 -2 -5 17 -9 l35 -7 -32 -2 -33 -1 0 -261 0 -261 52 7 c60
8 71 13 63 26 -4 5 -1 9 4 9 6 0 11 -5 11 -11 0 -7 14 -9 38 -5 301 47 612
103 619 110 2 2 6 102 9 222 2 121 7 227 10 237 8 26 20 21 35 -15 11 -25 13
-83 11 -241 l-3 -208 28 7 c15 4 38 11 51 15 13 5 40 9 60 9 48 0 192 22 192
29 0 3 26 7 58 8 31 1 129 14 217 28 88 14 193 30 233 36 39 6 72 14 72 18 0
4 16 5 35 3 22 -3 35 0 35 7 0 7 6 11 13 10 25 -3 72 3 60 8 -7 2 -13 11 -13
19 0 9 -4 13 -9 10 -5 -3 -14 1 -21 9 -11 13 -10 14 6 8 10 -3 34 -18 52 -31
20 -16 32 -20 30 -11 -2 8 7 15 22 17 20 2 22 1 10 -7 -23 -16 -6 -14 160 13
407 69 612 98 623 87 6 -6 7 -11 3 -11 -5 0 -183 -29 -395 -65 -860 -145
-1324 -225 -1329 -230 -3 -3 6 -5 19 -6 14 0 18 -3 9 -6 -8 -2 -30 -12 -49
-20 -22 -10 -70 -16 -135 -17 -98 -2 -99 -2 -51 10 101 24 11 13 -291 -35
-170 -28 -362 -58 -426 -67 l-118 -18 0 -333 0 -333 1359 0 c896 0 1362 3
1366 10 3 6 14 10 23 10 9 0 33 14 52 31 32 27 33 30 10 24 l-25 -7 23 17 c12
9 20 21 17 26 -4 5 0 9 7 9 10 0 9 3 -2 9 -8 6 -18 7 -23 4 -4 -3 -21 -7 -38
-10 -42 -6 -39 24 5 42 19 8 39 21 43 29 7 12 69 50 85 51 3 0 10 3 14 7 7 8
-21 4 -49 -7 -12 -5 -16 -3 -12 7 4 10 -2 14 -22 13 -21 0 -28 -5 -26 -19 1
-12 -2 -15 -9 -8 -5 5 -19 7 -30 4 -15 -3 -16 -7 -6 -13 9 -6 6 -8 -10 -6 -26
2 -28 10 -6 31 8 9 12 16 7 16 -5 0 -14 -5 -20 -11 -9 -9 -10 -7 -6 10 3 11
12 21 19 21 8 0 14 5 14 11 0 6 -9 8 -21 4 -16 -5 -19 -4 -14 5 5 9 4 11 -3 6
-8 -5 -12 1 -12 18 0 35 10 56 26 56 19 0 18 24 -1 40 -11 9 -15 32 -15 81 0
84 21 134 63 149 38 13 37 13 37 -5 0 -26 30 -29 51 -6 11 12 25 18 31 15 7
-5 9 0 6 14 -4 12 -2 20 3 16 5 -3 9 2 9 10 0 19 27 46 46 46 8 0 14 -8 14
-17 0 -23 13 -7 15 18 1 15 -3 19 -15 16 -14 -4 -15 -1 -6 18 6 13 13 22 17
20 3 -2 6 2 6 9 0 8 -7 12 -14 9 -8 -3 -13 -2 -12 3 2 5 -6 25 -16 45 -15 31
-16 42 -6 70 10 31 9 35 -21 67 -18 18 -42 38 -53 44 -11 6 -1 -7 23 -28 l44
-39 -10 -50 -10 -50 -1 40 c-1 34 -9 49 -43 85 -62 63 -79 91 -66 107 8 10 5
13 -11 13 -11 0 -21 5 -21 10 0 6 9 10 21 10 12 0 61 7 110 16 l89 17 0 141
c0 86 -6 165 -14 201 -13 52 -13 57 0 41 13 -18 14 -11 14 60 0 88 9 67 -114
269 l-18 30 26 -30 c15 -16 45 -59 66 -95 55 -89 50 -56 -5 42 -25 44 -45 84
-45 88 0 25 -57 71 -118 94 -160 61 -652 154 -1007 190 -138 14 -288 32 -335
41 -47 8 -134 19 -195 25 -60 6 -190 20 -287 32 -143 17 -191 19 -250 11 l-73
-10 57 -2 c52 -1 89 -19 60 -29 -7 -2 -10 -8 -6 -13 6 -10 -26 -12 -50 -3 -9
3 -13 10 -10 15 3 5 -7 9 -21 9 -15 0 -33 6 -41 14 -38 39 -394 125 -394 96z
m975 -154 c110 -13 184 -24 165 -25 -54 -1 -420 35 -427 43 -11 10 52 6 262
-18z m-323 -42 c-4 -47 -8 -51 -59 -68 -56 -19 -101 -51 -191 -137 l-64 -61
30 -28 c50 -46 89 -70 111 -70 11 0 25 -8 30 -19 7 -12 30 -22 73 -30 35 -7
71 -14 81 -17 11 -4 17 0 17 10 0 9 -3 16 -7 16 -14 0 -31 48 -22 61 5 9 13 4
25 -18 15 -25 28 -33 74 -43 68 -15 99 -46 169 -168 28 -49 51 -91 51 -94 0
-2 -24 -2 -52 0 -37 2 -63 11 -88 29 l-35 26 28 -30 c15 -16 24 -33 20 -37 -4
-4 -1 -12 7 -17 11 -7 5 -9 -20 -6 -44 6 -70 16 -70 28 0 5 -8 13 -17 16 -22
8 -78 50 -113 83 -14 14 -47 43 -73 64 -26 21 -53 50 -60 65 -6 14 -40 45 -74
67 -34 23 -60 44 -57 46 2 3 -6 4 -19 4 -16 -1 -23 5 -25 22 -2 12 -10 22 -18
22 -8 0 -14 4 -14 9 0 5 -26 21 -57 36 l-57 26 114 110 c124 121 146 135 185
117 21 -10 29 -9 43 6 13 13 30 16 77 13 59 -4 60 -5 57 -33z m571 9 c-7 -2
-21 -2 -30 0 -10 3 -4 5 12 5 17 0 24 -2 18 -5z m-872 -10 c-7 -3 -44 -37 -81
-75 -61 -63 -70 -69 -89 -59 -20 11 -30 41 -13 41 4 0 42 22 83 50 40 27 83
49 94 49 13 0 15 -3 6 -6z m992 0 c-7 -2 -21 -2 -30 0 -10 3 -4 5 12 5 17 0
24 -2 18 -5z m110 -10 c-7 -2 -21 -2 -30 0 -10 3 -4 5 12 5 17 0 24 -2 18 -5z
m-1382 -20 c-9 -18 -84 -91 -191 -188 -30 -27 1 7 70 78 69 70 126 127 128
127 1 0 -2 -8 -7 -17z m1477 10 c-10 -2 -26 -2 -35 0 -10 3 -2 5 17 5 19 0 27
-2 18 -5z m95 -10 c-7 -2 -19 -2 -25 0 -7 3 -2 5 12 5 14 0 19 -2 13 -5z
m-1003 -138 c0 -95 0 -95 -25 -95 -32 0 -45 31 -45 105 0 44 4 57 22 69 43 31
48 23 48 -79z m-83 49 c-3 -3 -12 -4 -19 -1 -8 3 -5 6 6 6 11 1 17 -2 13 -5z
m-23 -20 c24 -9 19 -27 -6 -21 -12 4 -29 1 -37 -6 -9 -6 -8 -2 3 11 22 25 19
24 40 16z m-354 -20 c0 -2 -7 -4 -15 -4 -8 0 -15 4 -15 10 0 5 7 7 15 4 8 -4
15 -8 15 -10z m2440 -69 c11 -13 10 -14 -4 -9 -9 3 -16 10 -16 15 0 13 6 11
20 -6z m-119 -128 c14 -53 64 -107 99 -107 54 0 57 -7 105 -280 4 -23 3 -22
-9 4 -7 16 -15 24 -17 17 -3 -8 -15 -7 -44 4 -22 8 -58 19 -80 25 -22 6 -49
17 -60 26 -17 12 -18 16 -5 24 32 20 -7 27 -74 14 -47 -9 -43 8 7 31 18 9 24
13 14 10 -26 -7 -43 5 -26 17 11 8 11 9 -2 5 -9 -3 -22 -2 -29 3 -7 4 -24 4
-39 0 -15 -4 -39 -1 -59 7 -18 7 -37 11 -42 8 -4 -3 -10 1 -12 7 -3 8 -22 13
-53 12 -40 -1 -45 1 -32 11 10 7 17 15 17 19 0 11 -75 7 -157 -9 -111 -21
-111 -18 2 21 86 30 88 39 5 19 -19 -5 -22 -4 -10 4 13 9 12 11 -5 12 -26 2
-25 2 -60 -7 l-30 -7 25 22 25 21 -28 -10 c-16 -6 -32 -8 -36 -6 -4 3 -33 -8
-65 -24 -35 -18 -67 -28 -80 -24 -12 3 -38 -2 -58 -10 -35 -15 -38 -15 -52 6
-23 32 -20 64 9 86 54 43 308 88 653 116 179 14 181 14 203 -67z m-2431 54 c0
-5 -7 -14 -15 -21 -12 -10 -15 -10 -15 2 0 8 3 18 7 21 9 10 23 9 23 -2z m50
-1 c0 -5 -7 -7 -15 -4 -8 4 -15 8 -15 10 0 2 7 4 15 4 8 0 15 -4 15 -10z m119
-36 c17 -14 35 -23 41 -19 19 12 49 -6 81 -46 17 -22 27 -38 23 -37 -5 2 -19
-7 -32 -19 -31 -32 -75 -30 -101 3 -12 15 -21 34 -20 43 0 10 4 8 10 -7 18
-46 61 -64 96 -42 15 9 12 10 -15 7 -18 -2 -35 0 -38 5 -3 4 -1 8 5 8 18 0 1
27 -26 39 -16 7 -23 17 -19 26 3 9 -1 15 -10 15 -8 0 -17 7 -20 15 -4 8 -12
15 -20 15 -8 0 -14 5 -14 10 0 18 28 11 59 -16z m-104 -76 c25 -11 34 -28 14
-28 -5 0 -7 -5 -4 -11 4 -5 -10 -3 -30 5 -21 9 -39 16 -42 16 -7 0 22 29 29
30 4 0 19 -5 33 -12z m105 -61 c0 -8 7 -14 15 -14 21 0 95 -34 95 -44 0 -5
-12 -4 -26 1 -16 7 -23 7 -19 0 10 -17 -51 -11 -65 6 -16 18 -22 64 -9 64 5 0
9 -6 9 -13z m-20 -57 c0 -5 -2 -10 -4 -10 -3 0 -8 5 -11 10 -3 6 -1 10 4 10 6
0 11 -4 11 -10z m23 -44 c9 -3 17 -13 17 -22 0 -15 -9 -16 -75 -10 -107 10
-112 13 -69 47 l37 29 36 -19 c20 -11 44 -22 54 -25z m-196 2 c-3 -8 -6 -5 -6
6 -1 11 2 17 5 13 3 -3 4 -12 1 -19z m190 -78 c-17 -28 -27 -25 -14 4 7 13 15
22 19 20 4 -3 2 -14 -5 -24z m56 23 c-7 -2 -19 -2 -25 0 -7 3 -2 5 12 5 14 0
19 -2 13 -5z m720 -122 c17 -29 17 -29 -5 -25 -18 3 -17 2 4 -7 17 -7 29 -20
33 -40 4 -16 10 -27 15 -24 5 3 15 -8 23 -25 13 -26 13 -30 1 -30 -8 0 -14 3
-14 8 0 4 -16 7 -35 6 -19 -1 -35 -1 -35 1 0 2 3 11 6 19 6 15 8 15 20 -1 12
-16 13 -17 14 -1 0 23 -16 31 -39 19 -21 -12 -44 6 -39 30 2 7 -4 13 -12 14
-8 0 -24 5 -34 11 -17 10 -18 13 -4 33 8 11 18 18 21 14 4 -3 7 1 7 10 0 30
53 21 73 -12z m-748 -19 c-6 -7 -35 18 -35 31 0 5 9 2 20 -8 11 -10 18 -20 15
-23z m1505 27 c0 6 8 11 18 10 9 0 12 -3 5 -5 -7 -3 -9 -12 -6 -20 3 -8 1 -14
-3 -14 -13 1 -44 26 -44 35 0 4 7 2 15 -5 10 -9 15 -9 15 -1z m-879 -22 c-13
-13 -26 -3 -16 12 3 6 11 8 17 5 6 -4 6 -10 -1 -17z m-71 -19 c0 -13 -23 -5
-28 10 -2 7 2 10 12 6 9 -3 16 -11 16 -16z m-549 -30 c11 -21 11 -22 -4 -9
-10 7 -17 17 -17 22 0 15 9 10 21 -13z m-241 -18 c18 -21 19 -25 5 -32 -8 -5
-15 -16 -15 -25 0 -14 -2 -14 -15 3 -19 25 -19 38 1 30 10 -4 14 -1 12 6 -3 7
-11 13 -18 13 -7 0 -14 7 -16 16 -3 24 21 17 46 -11z m280 12 c0 -5 9 -18 20
-30 12 -12 16 -22 9 -22 -11 0 -48 39 -49 53 0 4 5 7 10 7 6 0 10 -4 10 -8z
m1306 -13 c19 -22 19 -22 -3 -8 -13 8 -23 17 -23 21 0 12 6 9 26 -13z m-1666
-15 c0 -8 4 -14 9 -14 5 0 12 -7 15 -15 5 -13 1 -12 -19 2 -23 17 -37 62 -15
48 6 -3 10 -13 10 -21z m142 4 c2 -13 9 -22 16 -20 6 1 12 -2 12 -8 0 -5 6 -7
13 -4 23 8 50 -20 42 -45 -6 -19 -12 -22 -36 -17 -15 3 -31 1 -34 -4 -3 -6
-27 -9 -53 -9 -46 2 -46 2 -12 9 31 7 32 7 8 9 -26 1 -42 21 -17 21 6 0 9 7 5
15 -3 9 0 15 10 15 12 0 15 6 10 26 -6 22 -4 25 9 20 9 -3 13 -2 10 4 -3 6 -2
10 4 10 5 0 11 -10 13 -22z m33 12 c3 -5 -1 -10 -9 -10 -9 0 -16 5 -16 10 0 6
4 10 9 10 6 0 13 -4 16 -10z m-215 -30 c8 -5 10 -10 4 -10 -7 0 -22 9 -35 21
-19 16 -20 18 -4 10 11 -6 27 -15 35 -21z m1000 1 c0 -17 -5 -33 -11 -37 -7
-4 -10 2 -8 17 2 13 0 30 -4 37 -5 7 -3 12 7 12 11 0 16 -9 16 -29z m-643 -19
c-9 -10 -17 -25 -17 -34 0 -11 -8 -13 -30 -10 -35 5 -36 9 -9 42 14 17 22 21
26 13 5 -14 24 -18 22 -5 -4 25 2 35 13 24 9 -9 8 -16 -5 -30z m203 -5 c0 -5
-4 -5 -10 -2 -5 3 -10 14 -10 23 0 15 2 15 10 2 5 -8 10 -19 10 -23z m1316 22
c16 -27 -64 -40 -85 -15 -10 12 -7 15 16 19 52 8 62 7 69 -4z m-1467 -51 c1
-3 -8 -4 -18 -1 -17 4 -18 8 -8 24 11 18 12 18 19 1 3 -9 7 -20 7 -24z m80 26
c7 5 9 1 5 -8 -3 -9 -17 -16 -30 -16 -22 0 -23 2 -13 21 8 16 13 18 19 9 4 -7
13 -10 19 -6z m471 6 c0 -5 -4 -10 -9 -10 -6 0 -13 5 -16 10 -3 6 1 10 9 10 9
0 16 -4 16 -10z m104 -31 c14 -23 15 -30 5 -27 -8 3 -13 11 -11 17 1 6 -9 16
-23 21 -29 11 -32 20 -7 20 10 0 26 -14 36 -31z m456 19 c0 -4 -7 -8 -15 -8
-8 0 -15 4 -15 8 0 5 7 9 15 9 8 0 15 -4 15 -9z m202 -15 c-6 -2 -10 -9 -6
-14 9 -15 -13 -10 -26 6 -11 13 -8 15 16 14 16 0 23 -3 16 -6z m-1638 -18 c3
-8 3 -15 0 -15 -3 0 -12 7 -20 15 -13 13 -13 15 -1 15 8 0 17 -7 21 -15z m953
-7 c-3 -8 -6 -5 -6 6 -1 11 2 17 5 13 3 -3 4 -12 1 -19z m91 -3 c2 -10 0 -15
-6 -11 -6 3 -16 1 -24 -6 -14 -14 -48 -23 -48 -13 0 3 11 10 25 15 14 5 25 17
25 26 0 21 24 12 28 -11z m-128 5 c13 -8 13 -10 -2 -10 -9 0 -20 5 -23 10 -8
13 5 13 25 0z m-973 -26 c-3 -3 -12 -4 -19 -1 -8 3 -5 6 6 6 11 1 17 -2 13 -5z
m1178 -24 c3 -5 1 -10 -4 -10 -6 0 -11 5 -11 10 0 6 2 10 4 10 3 0 8 -4 11
-10z m729 -85 c3 -8 1 -15 -4 -15 -6 0 -10 7 -10 15 0 8 2 15 4 15 2 0 6 -7
10 -15z m-251 -82 c-7 -2 -19 -2 -25 0 -7 3 -2 5 12 5 14 0 19 -2 13 -5z m960
-60 c-7 -2 -19 -2 -25 0 -7 3 -2 5 12 5 14 0 19 -2 13 -5z m60 0 c-7 -2 -21
-2 -30 0 -10 3 -4 5 12 5 17 0 24 -2 18 -5z m-14 -27 c-2 -2 -17 -6 -34 -10
-22 -5 -26 -4 -15 4 14 9 59 15 49 6z m-936 -13 c-7 -2 -19 -2 -25 0 -7 3 -2
5 12 5 14 0 19 -2 13 -5z m-60 -10 c-7 -2 -19 -2 -25 0 -7 3 -2 5 12 5 14 0
19 -2 13 -5z m924 1 c-3 -3 -12 -4 -19 -1 -8 3 -5 6 6 6 11 1 17 -2 13 -5z
m-980 -10 c-3 -3 -12 -4 -19 -1 -8 3 -5 6 6 6 11 1 17 -2 13 -5z m778 -39
c-306 -77 -597 -146 -606 -143 -5 2 91 27 213 57 123 29 291 70 373 91 83 21
159 38 170 38 11 0 -56 -19 -150 -43z m260 -44 c-3 -6 -11 -9 -16 -6 -5 3 -6
-2 -2 -11 4 -11 2 -15 -7 -12 -24 8 -23 28 2 37 26 10 33 7 23 -8z m-344 -28
c13 -16 12 -17 -3 -4 -17 13 -22 21 -14 21 2 0 10 -8 17 -17z m376 11 c-3 -3
-12 -4 -19 -1 -8 3 -5 6 6 6 11 1 17 -2 13 -5z m100 -10 c-3 -3 -12 -4 -19 -1
-8 3 -5 6 6 6 11 1 17 -2 13 -5z m-332 -33 c9 -16 -37 -42 -52 -29 -10 8 -10
14 -2 24 13 16 45 19 54 5z m255 -21 c-52 -16 -110 -33 -129 -39 -24 -7 -31
-7 -24 0 19 19 167 66 208 67 33 0 23 -4 -55 -28z m-2113 -6 c-3 -3 -12 -4
-19 -1 -8 3 -5 6 6 6 11 1 17 -2 13 -5z m1803 -29 c22 -20 34 -139 16 -167 -9
-16 -20 -18 -71 -12 -33 3 -75 10 -92 16 -31 9 -33 13 -33 53 0 55 15 95 35
95 8 0 25 10 36 21 17 17 29 20 56 16 20 -4 43 -13 53 -22z m-631 11 c-2 -3
-85 -25 -184 -50 -99 -24 -304 -76 -455 -114 -151 -39 -413 -101 -582 -139
l-308 -68 -2 -155 -3 -155 -160 0 -160 0 -3 283 -2 282 165 0 165 0 0 -121 c0
-96 3 -119 13 -111 6 5 28 13 47 17 30 7 32 9 15 15 -26 10 -32 8 215 69 322
79 456 108 606 131 181 27 374 64 499 94 97 23 143 31 134 22z m632 -475 c7
-48 6 -78 -2 -87 -6 -8 -2 -10 15 -9 40 5 20 -20 -27 -35 -64 -20 -70 -21 -56
-4 14 17 -2 19 -21 2 -8 -7 -5 -1 8 13 22 25 22 27 6 88 -22 86 -15 99 36 65
22 -15 40 -29 41 -33z m144 4 c0 -36 -21 -65 -47 -65 -10 0 -19 8 -20 18 -4
54 13 85 46 80 16 -2 21 -10 21 -33z m94 -59 c-2 -2 -15 -9 -29 -16 -23 -12
-24 -12 -11 3 7 10 20 17 29 17 8 0 13 -2 11 -4z m11 -89 c0 -2 -11 -18 -24
-36 -15 -20 -26 -27 -28 -19 -8 21 3 47 17 42 7 -3 16 -1 20 5 6 10 15 15 15
8z m-72 -37 c-7 -11 -15 -15 -17 -9 -2 6 3 15 10 20 20 12 21 11 7 -11z"/>
<path d="M504 1988 l-19 -23 23 19 c12 11 22 21 22 23 0 8 -8 2 -26 -19z"/>
<path d="M957 1711 c-3 -12 -1 -21 3 -21 5 0 13 -12 18 -27 6 -16 11 -21 11
-12 1 9 -5 31 -13 49 -12 29 -14 30 -19 11z"/>
<path d="M825 2031 c-7 -24 2 -61 16 -61 11 0 12 50 0 69 -7 11 -10 9 -16 -8z"/>
<path d="M576 1795 c4 -8 11 -15 16 -15 6 0 5 6 -2 15 -7 8 -14 15 -16 15 -2
0 -1 -7 2 -15z"/>
<path d="M336 1781 c-3 -5 3 -11 13 -14 14 -3 18 -1 14 9 -6 16 -19 18 -27 5z"/>
<path d="M310 1295 c0 -8 2 -15 4 -15 2 0 6 7 10 15 3 8 1 15 -4 15 -6 0 -10
-7 -10 -15z"/>
<path d="M97 613 c-4 -3 -7 -111 -7 -240 l0 -233 150 0 150 0 0 240 0 240
-143 0 c-79 0 -147 -3 -150 -7z m194 -58 c33 -18 49 -50 49 -100 0 -27 -7 -39
-33 -59 -45 -34 -85 -33 -126 3 -50 45 -45 114 12 150 39 25 58 26 98 6z m-61
-250 c14 -17 0 -21 -17 -4 -13 13 -65 8 -70 -7 -2 -6 7 -16 19 -22 23 -10 23
-11 2 -11 -12 -1 -27 6 -34 14 -19 23 5 45 50 45 21 0 43 -7 50 -15z m137 -13
c0 -27 -3 -29 -47 -31 -50 -1 -77 16 -66 44 4 11 20 15 59 15 52 0 54 -1 54
-28z m-137 -82 c0 -28 -3 -30 -36 -30 -38 0 -74 15 -74 31 0 5 11 2 25 -7 32
-21 75 -12 75 16 0 11 2 20 5 20 3 0 5 -13 5 -30z m40 11 c0 -11 9 -23 20 -26
30 -9 60 4 60 26 0 10 5 19 10 19 6 0 10 -13 10 -30 0 -28 -2 -30 -41 -30 -22
0 -49 5 -60 10 -20 11 -27 50 -9 50 6 0 10 -9 10 -19z"/>
<path d="M275 300 c-10 -16 4 -30 28 -30 29 0 51 15 43 29 -9 14 -63 15 -71 1z"/>
<path d="M100 100 c0 -11 4 -20 9 -20 5 0 7 9 4 20 -3 11 -7 20 -9 20 -2 0 -4
-9 -4 -20z"/>
<path d="M203 112 c-33 -2 -53 -8 -57 -17 -3 -8 -1 -15 3 -15 5 0 12 6 14 13
4 10 6 10 6 0 1 -18 82 -17 106 0 17 13 17 14 -1 18 -10 2 -42 3 -71 1z"/>
<path d="M300 95 c0 -8 5 -15 10 -15 6 0 10 7 10 15 0 8 -4 15 -10 15 -5 0
-10 -7 -10 -15z"/>
<path d="M347 94 c7 -18 43 -18 43 0 0 8 -10 14 -24 14 -17 0 -23 -5 -19 -14z"/>
<path d="M2933 1153 c-46 -6 -41 -17 17 -35 l50 -16 0 29 c0 31 1 30 -67 22z"/>
<path d="M2885 517 c-4 -9 -4 -32 -1 -51 6 -32 5 -33 -21 -29 -27 3 -27 3 -5
-7 17 -7 29 -6 48 6 23 16 33 44 15 44 -5 0 -14 12 -19 28 -8 23 -11 24 -17 9z"/>
<path d="M2926 514 c-8 -20 0 -32 14 -18 5 5 5 15 1 22 -6 11 -10 10 -15 -4z"/>
<path d="M2735 440 c3 -5 8 -10 11 -10 2 0 4 5 4 10 0 6 -5 10 -11 10 -5 0 -7
-4 -4 -10z"/>
<path d="M2905 420 c-3 -5 -1 -10 4 -10 6 0 11 5 11 10 0 6 -2 10 -4 10 -3 0
-8 -4 -11 -10z"/>
<path d="M2800 400 c-9 -6 -10 -10 -3 -10 6 0 15 5 18 10 8 12 4 12 -15 0z"/>
<path d="M2858 383 c7 -3 16 -2 19 1 4 3 -2 6 -13 5 -11 0 -14 -3 -6 -6z"/>
<path d="M2745 330 c3 -5 8 -10 11 -10 2 0 4 5 4 10 0 6 -5 10 -11 10 -5 0 -7
-4 -4 -10z"/>
<path d="M2780 320 c-9 -6 -10 -10 -3 -10 6 0 15 5 18 10 8 12 4 12 -15 0z"/>
<path d="M2848 313 c7 -3 16 -2 19 1 4 3 -2 6 -13 5 -11 0 -14 -3 -6 -6z"/>
<path d="M2956 235 c-17 -13 -33 -22 -37 -19 -9 5 -92 -26 -85 -33 2 -2 21 3
41 11 50 21 52 20 25 -9 -20 -21 -21 -27 -9 -42 12 -14 12 -16 0 -8 -11 6 -13
4 -8 -9 5 -11 3 -15 -4 -10 -8 5 -10 -3 -7 -25 4 -27 -1 -37 -29 -61 l-34 -30
36 0 c49 0 87 39 53 54 -7 2 -2 4 11 3 16 -1 25 4 26 16 2 9 -1 15 -6 11 -5
-3 -6 -11 -2 -17 5 -8 2 -8 -9 0 -8 7 -19 9 -24 5 -5 -4 0 3 10 15 l19 22 27
-19 c46 -33 50 -28 50 75 0 52 -3 95 -7 95 -5 -1 -21 -12 -37 -25z"/>
<path d="M2840 150 c-8 -5 -10 -10 -5 -10 6 0 17 5 25 10 8 5 11 10 5 10 -5 0
-17 -5 -25 -10z"/>
<path d="M2846 93 c-6 -14 -5 -15 5 -6 7 7 10 15 7 18 -3 3 -9 -2 -12 -12z"/>
<path d="M2936 35 c-26 -33 -26 -35 -7 -35 14 0 21 7 21 18 0 10 5 23 12 30 6
6 9 14 6 17 -3 3 -17 -10 -32 -30z"/>
<path d="M2975 31 c-13 -26 -13 -31 -1 -31 7 0 16 12 19 27 7 39 1 40 -18 4z"/>
</g>
</svg>
