<?xml version="1.0" standalone="no"?>
<!DOCTYPE svg PUBLIC "-//W3C//DTD SVG 20010904//EN"
 "http://www.w3.org/TR/2001/REC-SVG-20010904/DTD/svg10.dtd">
<svg version="1.0" xmlns="http://www.w3.org/2000/svg"
 width="320.000000pt" height="320.000000pt" viewBox="0 0 320.000000 320.000000"
 preserveAspectRatio="xMidYMid meet">

<g transform="translate(0.000000,320.000000) scale(0.100000,-0.100000)"
fill="#000000" stroke="none">
<path d="M0 1600 l0 -1600 115 0 c88 0 115 3 115 13 0 7 5 18 12 25 6 6 13 26
15 44 2 18 5 39 8 46 7 20 52 14 82 -13 l28 -24 -30 0 c-23 0 -26 2 -12 8 17
6 16 8 -7 21 -31 16 -45 7 -22 -15 9 -9 14 -20 11 -25 -3 -4 4 -6 15 -3 16 4
19 2 14 -11 -4 -10 0 -18 11 -22 12 -5 13 -9 5 -14 -7 -4 -9 -13 -6 -19 5 -8
109 -11 349 -11 351 0 393 4 448 42 23 16 18 16 -96 12 -66 -3 -130 -7 -143
-10 -24 -5 -46 26 -24 34 7 2 12 9 12 15 0 8 24 13 68 14 100 2 185 13 199 25
10 8 15 3 19 -21 4 -17 10 -28 15 -26 4 3 10 1 13 -4 4 -5 -2 -12 -11 -14 -17
-4 -17 -5 0 -6 21 -1 23 -21 2 -21 -8 0 -15 -4 -15 -9 0 -4 23 -6 50 -3 44 4
50 2 44 -12 -6 -15 14 -17 240 -16 136 1 245 4 243 8 -3 4 3 20 13 37 13 23
23 29 41 27 31 -5 32 -6 32 -37 0 -30 15 -43 29 -24 7 11 11 11 15 2 4 -10 86
-13 366 -13 329 0 359 1 341 16 -18 15 -18 15 9 11 15 -2 27 0 27 6 0 15 150
2 185 -17 17 -9 41 -16 54 -16 18 0 22 4 18 20 -3 12 -1 18 5 14 6 -4 8 2 3
17 -11 37 -11 41 2 46 7 3 13 -3 14 -14 0 -10 2 -27 4 -38 2 -10 -1 -25 -7
-32 -8 -11 18 -13 136 -13 l146 0 0 432 c0 237 -2 429 -4 427 -23 -24 -74
-113 -69 -122 4 -6 1 -7 -7 -2 -9 5 -10 2 -6 -12 3 -11 -1 -27 -10 -39 -14
-18 -15 -18 -4 4 16 33 7 38 -10 6 -12 -21 -12 -27 -1 -33 10 -7 9 -15 -5 -42
-25 -48 -29 -187 -10 -336 20 -149 20 -159 4 -145 -7 5 -33 13 -58 17 -25 4
-54 12 -65 18 -11 6 -35 12 -54 14 -48 5 -79 24 -135 82 l-49 50 29 6 c77 17
96 28 122 68 15 23 42 57 61 76 l34 34 -26 14 c-31 16 -32 20 -11 61 17 36 22
38 49 18 12 -9 16 -20 12 -35 -4 -15 1 -29 15 -43 26 -26 33 -17 19 23 -9 26
-8 36 3 48 15 18 27 92 18 123 -4 15 -7 17 -14 6 -7 -9 -8 -7 -5 9 8 34 -43
96 -70 86 -7 -3 -13 -1 -13 5 0 21 -53 29 -85 13 l-30 -15 35 -9 c19 -4 41 -8
48 -9 7 -1 11 -6 9 -12 -6 -14 18 -37 28 -28 4 4 5 -6 3 -22 -1 -16 -9 -31
-16 -32 -7 -1 -8 0 -2 3 5 2 8 9 4 14 -3 5 -14 -1 -24 -13 -11 -13 -20 -18
-20 -13 0 6 -9 -5 -20 -23 -11 -17 -26 -32 -33 -32 -15 0 -87 -71 -87 -86 0
-6 -9 -19 -20 -29 -12 -10 -20 -13 -20 -6 0 8 -5 8 -20 -1 -11 -7 -20 -20 -20
-28 0 -21 -20 -40 -42 -40 -10 0 -18 -4 -18 -10 0 -5 -9 -10 -20 -10 -11 0
-20 -7 -20 -15 0 -9 -9 -15 -22 -14 -13 0 -130 -3 -260 -7 -205 -6 -238 -9
-242 -23 -9 -33 -45 -197 -51 -234 -6 -35 -7 -36 -28 -25 -16 9 -18 13 -7 15
11 3 24 42 44 131 26 113 30 149 33 327 4 262 4 246 -6 259 -16 21 -24 76 -10
76 7 0 1 12 -14 28 -25 26 -25 29 -12 55 8 15 10 29 4 32 -5 4 -9 16 -9 29 0
12 -6 28 -12 34 -10 10 -10 17 0 33 14 23 8 39 -15 39 -14 0 -14 2 0 24 13 20
14 29 4 55 -6 17 -14 31 -17 31 -4 0 -7 22 -7 50 -1 27 -6 73 -12 102 -6 29
-13 76 -17 103 -3 28 -15 77 -26 110 -25 74 -87 195 -99 195 -5 0 -9 9 -9 19
0 11 -4 23 -10 26 -5 3 -10 1 -10 -6 0 -8 -7 -6 -19 5 -19 17 -41 18 -52 2
-10 -13 -29 3 -29 24 0 20 -45 50 -75 50 -8 0 -15 3 -15 8 0 4 -26 23 -57 41
-32 19 -60 37 -63 41 -3 4 -29 18 -59 32 -32 15 -49 28 -42 32 6 4 26 -2 45
-13 18 -12 38 -21 44 -21 7 0 23 21 36 48 28 54 32 46 12 -21 -8 -26 -10 -47
-6 -47 5 0 12 9 15 20 3 11 13 20 21 20 8 0 14 7 14 15 0 8 -4 15 -10 15 -21
0 -9 23 33 61 45 42 45 42 77 77 29 32 52 29 48 -5 -2 -22 -9 -29 -30 -31 -29
-3 -40 -22 -13 -22 14 0 14 -4 0 -36 -8 -20 -15 -45 -15 -55 0 -14 -10 -20
-40 -25 -42 -7 -49 -12 -55 -43 -2 -12 5 -22 23 -30 24 -12 29 -9 61 27 20 22
43 42 51 45 11 3 8 8 -10 16 l-25 11 27 -3 c19 -3 29 2 36 17 18 35 13 2 -7
-57 l-20 -56 27 -4 27 -4 -26 -2 c-37 -2 -46 -31 -17 -53 55 -42 66 -43 92
-15 14 15 34 27 45 27 11 0 26 7 34 15 8 7 28 17 43 21 16 4 57 22 91 41 72
38 73 39 73 16 0 -12 3 -14 8 -6 5 8 13 9 22 3 8 -6 24 -10 35 -10 15 0 17 2
7 9 -24 15 -10 46 21 46 15 1 32 8 39 17 7 8 35 24 61 33 26 10 46 23 44 29
-6 15 43 66 57 60 9 -3 11 4 8 24 -4 31 13 51 30 34 5 -5 11 -42 13 -82 2 -47
8 -76 17 -81 7 -5 9 -9 5 -9 -5 0 -2 -7 7 -15 12 -12 20 -13 40 -3 28 12 31
31 17 104 -9 49 11 231 32 288 18 48 11 207 -10 250 -10 18 -10 26 -3 21 40
-24 56 -217 25 -291 -8 -20 -20 -85 -27 -146 -15 -131 -8 -151 65 -186 44 -21
293 -82 400 -97 56 -9 66 -22 74 -103 4 -39 15 -70 36 -101 17 -26 38 -57 47
-71 9 -14 22 -47 30 -75 7 -27 17 -54 21 -60 5 -5 9 -18 9 -30 0 -11 5 -27 10
-35 6 -10 10 271 10 803 l0 817 -1600 0 -1600 0 0 -1600z m1023 1380 c-3 -11
-7 -20 -9 -20 -2 0 -4 9 -4 20 0 11 4 20 9 20 5 0 7 -9 4 -20z m-46 -1 c-9 -6
-15 -14 -12 -20 4 -5 1 -9 -4 -9 -6 0 -11 5 -11 10 0 6 -8 10 -17 10 -15 0
-16 2 -3 10 8 5 26 10 40 10 22 -1 23 -2 7 -11z m139 1 c5 -5 24 -11 42 -13
36 -4 43 -18 15 -28 -11 -4 -27 1 -42 12 -13 11 -30 19 -37 19 -8 0 -14 5 -14
10 0 13 23 13 36 0z m1259 -118 c-3 -3 -11 0 -18 7 -9 10 -8 11 6 5 10 -3 15
-9 12 -12z m-1080 -48 c-4 -34 1 -61 20 -108 14 -34 25 -76 25 -93 0 -16 9
-56 20 -88 21 -61 26 -125 11 -125 -6 0 -9 18 -8 40 1 44 -16 71 -34 53 -8 -8
-7 -13 2 -18 8 -6 10 -4 4 5 -5 9 -4 11 3 6 14 -8 16 -26 4 -26 -5 0 -19 9
-32 20 -26 22 -36 25 -45 10 -3 -5 -19 -10 -34 -10 -15 0 -36 -7 -47 -15 -18
-15 -17 -16 16 -10 30 5 27 2 -20 -19 -61 -27 -75 -25 -59 7 9 19 8 18 -10 -3
-11 -14 -16 -27 -10 -31 6 -3 4 -11 -6 -19 -8 -7 -15 -26 -15 -42 0 -18 -4
-27 -11 -23 -5 4 -8 12 -6 18 2 6 -4 19 -12 28 -15 15 -81 49 -96 49 -12 0
-32 25 -28 37 2 6 -1 14 -6 18 -6 3 -11 34 -11 68 0 46 5 68 20 87 23 30 24
48 5 74 -8 11 -15 34 -15 52 0 32 1 32 40 27 29 -4 48 0 75 16 43 25 119 28
161 6 20 -10 30 -11 35 -3 4 6 14 8 22 5 9 -3 18 1 21 9 3 8 1 14 -4 14 -6 0
-5 8 2 19 19 30 29 14 23 -35z m909 -4 c25 -9 28 -14 22 -44 -5 -27 -2 -40 19
-65 14 -16 25 -36 24 -43 -4 -18 12 -101 21 -113 4 -5 5 -26 3 -46 -4 -27 -12
-39 -37 -53 -28 -15 -32 -22 -29 -49 3 -26 1 -28 -6 -12 -9 18 -10 17 -11 -10
-2 -22 -4 -24 -7 -10 -8 31 -23 42 -23 17 0 -12 -4 -22 -9 -22 -5 0 -11 -15
-15 -32 -5 -23 -9 -29 -15 -20 -6 10 -10 7 -15 -12 -3 -14 -12 -26 -19 -27
-17 -1 -41 -6 -65 -13 -20 -7 -21 -6 -5 25 12 24 13 36 5 49 -11 18 1 40 22
40 19 0 56 44 56 65 0 12 -10 34 -21 49 -25 32 -38 28 -16 -5 21 -29 4 -46
-40 -41 -36 4 -44 18 -15 25 10 3 5 5 -13 7 l-30 2 33 14 c17 8 32 19 32 25 0
8 -4 8 -12 2 -17 -13 -97 -23 -103 -14 -6 11 17 73 33 90 8 8 12 25 9 38 -2
12 -1 23 3 23 15 0 60 -42 60 -55 0 -34 54 -29 63 5 3 13 11 18 20 14 15 -5
34 12 24 22 -5 5 -29 11 -50 13 -5 1 -7 7 -4 14 2 7 16 11 35 9 18 -2 32 1 32
7 0 16 -69 31 -119 24 l-46 -6 19 22 c17 18 17 21 3 21 -10 0 -17 3 -17 8 1
15 28 42 42 42 8 0 23 7 34 16 10 8 14 13 9 10 -6 -2 -17 0 -25 5 -20 13 106
4 144 -11z m-234 -34 c0 -3 -4 -8 -10 -11 -5 -3 -10 -1 -10 4 0 6 5 11 10 11
6 0 10 -2 10 -4z m0 -91 c-7 -9 -15 -13 -19 -10 -3 3 1 10 9 15 21 14 24 12
10 -5z m441 -112 c-11 -16 -21 -44 -23 -63 -3 -30 0 -35 17 -32 52 8 58 24 25
60 l-21 22 33 20 c43 26 52 22 56 -26 3 -45 -21 -85 -67 -109 -38 -19 -74 -9
-65 19 6 21 6 21 -9 2 -13 -18 -14 -15 -6 32 12 81 18 94 39 87 10 -3 21 -1
25 5 3 5 8 10 11 10 2 0 -4 -12 -15 -27z m-1606 -44 c27 -16 33 -24 23 -30 -7
-5 -22 -6 -33 -3 l-20 6 20 -15 c19 -15 17 -15 -24 -10 -38 5 -46 3 -62 -18
-15 -20 -19 -43 -19 -131 0 -95 -2 -110 -20 -128 -12 -12 -18 -25 -14 -31 7
-12 -44 -94 -53 -85 -4 3 -26 -31 -50 -76 -25 -46 -48 -85 -52 -88 -10 -7 -62
-119 -107 -233 -20 -50 -54 -116 -76 -144 l-39 -53 -37 15 c-72 29 -147 142
-127 192 7 17 8 17 15 -2 8 -18 9 -18 9 -2 1 10 7 24 13 31 7 7 45 48 83 91
39 44 87 96 108 117 20 20 37 43 37 50 0 7 -22 -10 -50 -37 -27 -27 -50 -52
-50 -56 0 -4 -30 -36 -67 -71 -37 -35 -81 -77 -97 -94 -17 -18 -44 -40 -61
-50 -16 -11 18 27 77 84 59 57 120 125 137 151 17 26 51 62 76 81 25 19 58 50
72 70 14 19 32 40 38 45 7 6 30 33 51 60 31 41 38 60 41 105 4 49 3 53 -10 37
-14 -17 -15 -15 -15 20 -1 48 36 162 60 188 16 17 31 20 102 20 47 0 82 3 80
7 -8 13 3 9 41 -13z m1006 1 c12 0 59 -49 59 -61 0 -19 -20 -7 -37 21 -13 22
-25 30 -46 30 -17 0 -26 4 -22 11 4 6 14 8 22 5 8 -3 19 -6 24 -6z m-22 -44
c29 -31 34 -89 8 -94 -11 -2 -23 7 -35 27 -21 38 -39 45 -124 42 -38 -1 -68 2
-68 7 0 5 31 15 68 22 56 10 73 10 93 0 22 -12 23 -12 10 3 -23 28 21 21 48
-7z m60 -64 l0 -27 -10 24 c-5 14 -19 41 -30 60 l-21 36 31 -33 c20 -21 31
-42 30 -60z m-985 6 c4 -24 9 -53 12 -65 6 -21 4 -21 -20 -10 -21 10 -23 14
-12 23 10 7 12 15 5 25 -11 18 -12 69 0 69 5 0 11 -19 15 -42z m1075 -14 c9
-43 7 -53 -12 -82 -23 -35 -97 -77 -97 -54 0 4 16 18 35 31 19 13 35 29 35 37
0 7 7 20 15 28 13 12 14 20 5 36 -6 11 -8 30 -5 41 9 28 13 21 24 -37z m351
14 c0 -4 -4 -8 -9 -8 -5 0 -17 -3 -27 -7 -16 -6 -17 -5 -4 8 15 17 40 21 40 7z
m85 -7 c3 -5 2 -12 -3 -15 -5 -3 -9 1 -9 9 0 17 3 19 12 6z m-1545 -7 c0 -12
-72 -124 -79 -124 -16 0 -33 30 -27 46 3 9 15 18 26 21 11 3 20 9 20 14 0 4
10 17 22 29 21 20 38 26 38 14z m1220 -3 c-8 -5 -28 -11 -44 -15 -26 -6 -28
-5 -17 8 8 9 28 16 45 16 22 -1 27 -3 16 -9z m-795 -31 c4 -6 -8 -10 -29 -10
-19 0 -43 -3 -53 -6 -12 -5 -15 -4 -8 4 19 19 80 28 90 12z m565 -16 c0 -8 -5
-12 -10 -9 -6 4 -8 11 -5 16 9 14 15 11 15 -7z m-607 -31 c-3 -7 0 -13 7 -13
9 0 9 -4 -1 -17 -11 -13 -11 -17 -1 -20 20 -7 13 -23 -10 -23 -27 0 -88 51
-88 73 0 12 11 15 49 14 34 -1 47 -6 44 -14z m154 -45 c-3 -7 -5 -2 -5 12 0
14 2 19 5 13 2 -7 2 -19 0 -25z m441 10 c17 -17 15 -41 -2 -35 -8 3 -17 -1
-20 -9 -3 -9 -10 -13 -15 -10 -5 4 -11 2 -13 -3 -1 -5 -12 -11 -23 -13 -16 -2
-21 3 -23 30 -3 26 1 34 20 41 33 14 62 13 76 -1z m-438 -43 c0 -8 -4 -15 -9
-15 -5 0 -7 -8 -4 -19 3 -10 0 -22 -6 -25 -12 -8 -15 31 -5 58 8 20 24 21 24
1z m-332 -130 c34 -20 62 -40 62 -45 0 -28 -25 -60 -47 -60 -18 0 -24 -5 -21
-17 6 -27 38 -17 76 23 39 40 82 47 82 13 0 -19 1 -19 16 -5 19 20 24 20 24 0
0 -9 -23 -26 -56 -41 -47 -21 -66 -25 -134 -22 -113 6 -120 14 -120 142 l0
101 28 -26 c15 -15 55 -43 90 -63z m-192 30 c-8 -8 -20 -15 -27 -15 -7 0 -4 6
7 15 25 19 40 19 20 0z m477 -30 c-7 -21 -13 -19 -13 6 0 11 4 18 10 14 5 -3
7 -12 3 -20z m-530 -2 c-7 -2 -13 -12 -13 -20 0 -13 -3 -13 -15 -3 -12 10 -19
10 -27 2 -7 -7 -20 -12 -30 -12 -10 0 -18 -7 -18 -16 0 -13 -3 -14 -15 -4 -17
14 -35 5 -35 -18 0 -13 -2 -14 -12 -3 -11 10 -9 15 6 27 11 8 27 14 35 15 9 0
34 9 56 19 22 10 49 18 60 18 11 0 14 -2 8 -5z m1054 -89 c-3 -3 -12 -4 -19
-1 -8 3 -5 6 6 6 11 1 17 -2 13 -5z m-70 -10 c-3 -3 -12 -4 -19 -1 -8 3 -5 6
6 6 11 1 17 -2 13 -5z m-192 -1069 c0 -41 -2 -75 -6 -75 -3 0 -6 -18 -7 -40
-2 -29 1 -40 11 -40 15 0 31 32 43 85 6 26 5 28 -8 18 -14 -12 -28 -8 -28 7 0
3 13 16 30 28 16 12 28 17 26 10 -16 -49 -28 -177 -19 -193 10 -17 11 -17 24
6 7 14 13 60 13 106 1 107 22 133 33 41 3 -24 10 -48 15 -55 12 -15 -1 -65
-15 -56 -6 3 -7 1 -3 -6 4 -6 -7 -47 -25 -91 -35 -89 -51 -103 -21 -19 36 99
35 95 23 79 -6 -8 -25 -51 -42 -95 -17 -44 -35 -89 -40 -100 -4 -11 -16 -45
-25 -75 -17 -56 -38 -93 -27 -49 5 24 5 24 -12 4 -14 -16 -16 -17 -11 -3 3 10
-1 33 -10 53 -14 33 -13 35 6 35 11 0 20 3 21 8 1 10 5 32 18 92 6 28 11 74
10 103 l-1 52 -13 -40 c-18 -54 -18 -43 0 59 9 48 13 91 10 96 -6 10 19 130
27 130 2 0 3 -34 3 -75z m31 17 c-11 -10 -14 3 -8 33 l7 30 3 -28 c2 -16 1
-31 -2 -35z m34 26 c0 -23 -3 -29 -11 -21 -6 6 -8 20 -4 32 9 30 15 26 15 -11z
m-50 -138 c-6 -11 -13 -20 -16 -20 -2 0 0 9 6 20 6 11 13 20 16 20 2 0 0 -9
-6 -20z m376 -174 c8 -9 12 -25 9 -38 -3 -13 -7 -39 -9 -58 -2 -19 -7 -51 -10
-70 -3 -19 -8 -57 -10 -84 -2 -27 -10 -53 -18 -57 -10 -7 -9 -9 5 -9 9 0 17
-5 17 -11 0 -6 -7 -8 -16 -5 -12 4 -15 2 -10 -9 3 -8 1 -15 -5 -15 -5 0 -20
-9 -32 -21 l-22 -20 28 10 c37 14 39 14 28 -6 -5 -10 -12 -26 -15 -36 -3 -9
-16 -18 -28 -18 -23 -2 -23 -2 -1 -6 21 -4 21 -5 5 -34 -18 -30 -40 -37 -60
-17 -15 15 -16 31 -1 22 14 -9 2 125 -13 143 -5 7 -7 22 -3 34 5 14 2 25 -6
30 -8 4 -19 28 -26 51 l-12 43 6 -49 c3 -27 6 -56 7 -65 1 -12 -14 -17 -63
-23 -35 -4 -71 -10 -79 -13 -21 -8 -8 64 23 125 14 27 25 55 25 62 0 7 13 40
29 73 l29 60 1 -37 c1 -21 4 -38 7 -38 3 0 17 14 31 30 49 59 155 90 189 56z
m-371 -171 c-15 -31 -29 -55 -31 -53 -2 2 9 36 24 75 16 42 28 64 30 53 2 -10
-9 -44 -23 -75z m1245 78 c-1 -5 -15 -25 -33 -45 -24 -28 -36 -35 -47 -28 -12
7 -11 13 10 34 13 15 29 26 37 26 7 0 13 5 13 10 0 6 5 10 10 10 6 0 10 -3 10
-7z m2 -97 c-12 -43 -70 -116 -107 -133 -55 -26 -54 -6 3 43 29 25 59 61 67
80 17 40 47 48 37 10z m-92 0 c0 -3 -9 -20 -20 -39 -14 -23 -40 -44 -76 -62
-61 -30 -85 -25 -41 8 16 12 47 39 70 59 36 33 67 48 67 34z m-1245 -86 c-3
-5 -2 -10 3 -10 5 0 7 -11 4 -25 -3 -20 -10 -25 -33 -25 -36 0 -36 7 -4 43 26
27 42 36 30 17z m-1200 -160 c-3 -5 4 -11 17 -11 17 -1 18 -3 5 -6 -24 -6 -11
-23 18 -23 39 0 80 -19 67 -32 -10 -10 -27 -11 -87 -4 -16 1 -36 -1 -42 -7 -9
-7 -13 -5 -13 6 0 9 5 19 10 22 6 3 10 16 10 29 0 12 3 26 7 29 10 10 15 8 8
-3z m1213 -45 c-3 -3 -9 2 -12 12 -6 14 -5 15 5 6 7 -7 10 -15 7 -18z m-1068
-35 c0 -5 -2 -10 -4 -10 -3 0 -8 5 -11 10 -3 6 -1 10 4 10 6 0 11 -4 11 -10z
m1044 4 c9 -3 14 -9 12 -13 -3 -4 -6 -35 -7 -69 -1 -35 -6 -59 -9 -55 -7 8
-21 143 -15 143 2 0 10 -3 19 -6z m366 -23 c0 -11 -25 -21 -51 -21 -12 0 -16
5 -13 15 7 16 64 21 64 6z m-1163 -53 c-3 -8 -6 -5 -6 6 -1 11 2 17 5 13 3 -3
4 -12 1 -19z m93 12 c0 -5 -4 -10 -9 -10 -6 0 -13 5 -16 10 -3 6 1 10 9 10 9
0 16 -4 16 -10z m-275 -16 c12 -5 14 -9 4 -14 -14 -9 -39 -2 -39 11 0 11 12
11 35 3z m128 -37 c-3 -5 -9 -3 -14 4 -4 7 -5 17 -2 22 3 5 9 3 14 -4 4 -7 5
-17 2 -22z m1283 -5 c-9 -8 -26 10 -26 26 1 15 2 15 15 -2 8 -11 13 -21 11
-24z m63 31 c0 -5 -4 -17 -9 -28 -8 -18 -9 -17 -9 8 -1 15 4 27 9 27 6 0 10
-3 9 -7z m-1395 -9 c22 -9 10 -24 -20 -24 -15 0 -24 6 -24 15 0 16 17 19 44 9z
m-147 -60 c-3 -3 -12 -4 -19 -1 -8 3 -5 6 6 6 11 1 17 -2 13 -5z"/>
<path d="M1229 2748 c4 -19 14 -34 24 -36 25 -5 21 21 -7 47 l-24 22 7 -33z"/>
<path d="M1241 2663 c-29 -24 -29 -48 -1 -106 16 -34 26 -45 33 -38 13 13 41
15 33 3 -2 -4 4 -8 14 -8 18 0 22 16 7 27 -10 7 -10 32 -1 78 5 27 3 37 -12
48 -24 18 -48 16 -73 -4z m46 -69 c-3 -3 -12 -4 -19 -1 -8 3 -5 6 6 6 11 1 17
-2 13 -5z"/>
<path d="M1022 2635 c-32 -22 -70 -65 -57 -65 3 0 28 12 56 26 28 14 58 24 67
22 10 -2 -2 -11 -30 -22 -53 -21 -63 -39 -20 -36 42 3 54 1 47 -9 -3 -5 -1
-13 5 -16 16 -10 59 22 66 49 3 14 12 27 20 30 19 7 18 32 -2 40 -38 15 -119
5 -152 -19z"/>
<path d="M723 2503 c9 -2 25 -2 35 0 9 3 1 5 -18 5 -19 0 -27 -2 -17 -5z"/>
<path d="M403 2023 c-17 -6 -17 -20 0 -20 8 0 14 6 14 14 0 7 -1 13 -1 12 -1
0 -7 -3 -13 -6z"/>
<path d="M1777 2442 c3 -12 9 -25 14 -28 14 -8 11 10 -6 32 -13 18 -14 18 -8
-4z"/>
<path d="M1761 534 c0 -11 3 -14 6 -6 3 7 2 16 -1 19 -3 4 -6 -2 -5 -13z"/>
<path d="M1863 354 c-12 -27 -2 -32 17 -9 8 10 10 19 4 25 -5 5 -14 -1 -21
-16z"/>
<path d="M1961 1758 c-28 -104 -39 -184 -23 -174 6 3 14 28 17 54 4 26 13 80
21 121 8 40 13 75 11 77 -2 2 -14 -33 -26 -78z"/>
<path d="M2887 1648 c-4 -40 -10 -84 -13 -98 -4 -20 -3 -22 5 -9 11 16 28 179
19 179 -3 0 -8 -33 -11 -72z"/>
<path d="M2542 1445 c-36 -107 -53 -175 -52 -205 l2 -45 13 55 c7 30 32 118
54 195 23 77 40 144 39 150 -2 6 -27 -61 -56 -150z"/>
<path d="M2916 1277 c3 -10 9 -15 12 -12 3 3 0 11 -7 18 -10 9 -11 8 -5 -6z"/>
<path d="M2930 1206 c0 -8 5 -18 10 -21 6 -3 10 1 10 9 0 8 -4 18 -10 21 -5 3
-10 -1 -10 -9z"/>
<path d="M2492 1140 c0 -14 2 -19 5 -12 2 6 2 18 0 25 -3 6 -5 1 -5 -13z"/>
<path d="M2960 1044 c0 -9 5 -14 12 -12 18 6 21 28 4 28 -9 0 -16 -7 -16 -16z"/>
<path d="M3148 845 c-4 -20 -3 -23 8 -14 16 13 19 39 5 39 -5 0 -11 -11 -13
-25z"/>
<path d="M3090 760 c-15 -28 -16 -38 -6 -34 7 3 16 19 20 35 3 17 10 28 16 24
5 -3 10 -1 10 4 0 24 -21 9 -40 -29z"/>
<path d="M2647 685 c-29 -26 -45 -29 -109 -26 -42 3 -49 -10 -17 -33 14 -9 33
-13 51 -9 25 5 29 3 26 -12 -2 -10 4 -20 12 -22 13 -4 13 -3 0 6 -10 7 -11 11
-2 11 6 0 12 6 12 13 0 7 19 31 41 55 44 45 33 58 -14 17z"/>
<path d="M2682 610 c-24 -23 -38 -25 -46 -7 -3 6 -4 3 -3 -8 3 -21 -67 -95
-91 -95 -7 0 -10 -4 -7 -10 3 -5 1 -19 -5 -31 -30 -55 38 -23 112 52 48 50 82
105 69 114 -5 2 -17 -5 -29 -15z"/>
<path d="M2970 388 c-11 -40 -23 -81 -26 -90 -11 -38 15 -16 30 25 15 43 31
137 23 137 -3 0 -15 -33 -27 -72z"/>
<path d="M2939 259 c-7 -28 -3 -59 7 -63 10 -4 12 3 7 27 -5 30 -12 46 -14 36z"/>
<path d="M2896 215 c-3 -8 -1 -15 4 -15 6 0 10 7 10 15 0 8 -2 15 -4 15 -2 0
-6 -7 -10 -15z"/>
</g>
</svg>
