<?xml version="1.0" standalone="no"?>
<!DOCTYPE svg PUBLIC "-//W3C//DTD SVG 20010904//EN"
 "http://www.w3.org/TR/2001/REC-SVG-20010904/DTD/svg10.dtd">
<svg version="1.0" xmlns="http://www.w3.org/2000/svg"
 width="265.000000pt" height="320.000000pt" viewBox="0 0 265.000000 320.000000"
 preserveAspectRatio="xMidYMid meet">

<g transform="translate(0.000000,320.000000) scale(0.100000,-0.100000)"
fill="#000000" stroke="none">
<path d="M0 1825 l0 -1375 76 0 c65 0 75 -2 70 -16 -3 -9 -6 -24 -6 -34 0 -17
-9 -19 -67 -22 l-68 -3 -3 -188 -2 -187 707 0 c409 0 714 4 723 10 9 6 20 5
29 -3 12 -10 13 -8 8 15 -9 35 5 42 35 18 14 -11 29 -16 34 -12 5 4 2 -1 -5
-10 -13 -17 15 -18 553 -18 l566 0 0 755 c0 497 -3 755 -10 755 -5 0 -10 7
-10 15 0 8 -4 23 -9 33 -6 9 -12 29 -15 43 -5 22 -10 25 -31 21 -22 -4 -25
-10 -26 -46 l-2 -41 -6 42 c-4 24 -9 45 -12 47 -2 2 -24 6 -49 8 -42 3 -45 2
-50 -26 -7 -43 -22 -37 -34 14 -10 39 -15 45 -43 51 -17 3 -46 18 -63 33 -17
14 -35 26 -39 26 -5 0 -22 14 -40 30 -18 18 -37 28 -44 24 -7 -4 -9 -4 -5 0 4
5 2 13 -3 20 -6 6 -20 27 -32 46 -18 30 -21 32 -25 15 -13 -64 -27 -28 -62
159 -24 130 -25 213 -4 309 23 106 55 201 64 188 4 -8 16 2 32 26 14 21 42 55
64 77 41 41 160 126 176 126 6 0 24 12 41 26 21 18 32 22 37 13 6 -9 16 -9 40
0 18 6 50 11 71 11 21 0 49 4 63 10 l26 10 0 190 0 190 -1325 0 -1325 0 0
-1375z m990 1020 c0 -8 -4 -15 -10 -15 -5 0 -7 7 -4 15 4 8 8 15 10 15 2 0 4
-7 4 -15z m-63 -47 c-3 -8 -6 -5 -6 6 -1 11 2 17 5 13 3 -3 4 -12 1 -19z m-37
-10 c0 -7 -5 -20 -10 -28 -8 -12 -10 -9 -10 13 0 15 5 27 10 27 6 0 10 -6 10
-12z m-108 -30 c-8 -8 -9 -4 -5 13 4 13 8 18 11 10 2 -7 -1 -18 -6 -23z m48 8
c0 -8 -4 -17 -9 -21 -6 -3 -9 4 -8 15 1 23 17 28 17 6z m-89 -19 c-10 -9 -11
-8 -5 6 3 10 9 15 12 12 3 -3 0 -11 -7 -18z m642 -152 c17 5 34 1 49 -9 23
-16 78 -110 78 -133 0 -7 5 -13 11 -13 5 0 8 -4 5 -9 -3 -4 17 -45 44 -89 27
-45 57 -101 68 -124 11 -24 39 -83 63 -133 38 -80 43 -99 45 -168 2 -72 0 -80
-21 -99 -13 -11 -27 -34 -30 -49 -4 -16 -11 -27 -16 -23 -5 3 -9 0 -9 -5 0 -6
-11 -11 -25 -11 -14 0 -25 5 -25 11 0 6 -7 9 -15 6 -8 -4 -17 -2 -20 2 -2 5
-20 12 -39 15 -19 4 -39 13 -46 21 -12 15 -60 21 -60 8 0 -11 32 -43 44 -43 6
0 18 -4 26 -10 12 -7 10 -13 -11 -32 -15 -13 -36 -29 -47 -36 -28 -16 -160
-34 -177 -25 -26 15 -74 84 -80 116 -3 18 -10 50 -15 72 -5 22 -12 56 -15 76
-3 21 -13 43 -22 50 -9 8 -34 38 -55 66 -21 29 -43 53 -49 53 -6 0 -7 -4 -4
-10 3 -5 -2 -10 -12 -10 -10 1 -27 15 -38 33 -11 18 -29 32 -39 32 -31 0 -30
23 1 29 27 6 28 9 26 57 -2 41 0 49 11 40 10 -8 16 -5 26 15 12 22 12 27 0 34
-12 7 -9 15 18 43 17 18 32 38 32 45 0 7 4 12 9 12 5 0 8 11 7 24 -2 19 4 28
26 37 16 6 26 14 24 17 -7 6 20 32 32 32 6 0 12 5 14 11 2 5 10 12 18 13 71
16 77 19 73 36 -3 10 2 20 12 24 9 3 14 2 11 -2 -3 -5 2 -9 10 -9 8 0 13 6 10
14 -5 11 -1 11 17 2 21 -12 21 -11 7 7 -14 18 -14 19 6 1 15 -12 30 -16 47
-12z m-843 -75 c0 -5 -2 -10 -4 -10 -3 0 -8 5 -11 10 -3 6 -1 10 4 10 6 0 11
-4 11 -10z m1304 -262 c36 -56 66 -179 66 -272 0 -85 -2 -96 -31 -140 -28 -46
-40 -52 -45 -23 -1 7 -9 32 -18 56 -9 24 -14 53 -10 63 3 12 0 18 -10 18 -9 0
-16 7 -16 16 0 8 -10 34 -23 57 -27 50 -32 97 -15 146 7 20 12 40 13 44 0 4 5
11 11 15 6 4 13 15 17 25 9 24 44 21 61 -5z m-1151 -4 c4 9 11 14 17 11 12 -8
9 -65 -3 -65 -5 0 -7 -6 -4 -14 6 -15 -17 -16 -30 -1 -4 4 -3 5 3 2 7 -4 12 3
12 18 0 14 -4 22 -9 19 -5 -3 -9 7 -8 23 0 23 2 25 8 9 7 -18 8 -18 14 -2z
m-152 -153 c1 -3 3 -22 5 -41 6 -48 18 -56 42 -25 l21 26 20 -47 21 -46 -40
-45 c-42 -48 -84 -113 -72 -113 4 0 7 -29 7 -64 0 -36 -4 -62 -9 -59 -5 4 -6
1 -2 -6 4 -6 2 -28 -5 -48 -10 -30 -13 -33 -21 -19 -10 17 -4 138 7 156 3 6 4
10 1 10 -11 0 -47 -82 -70 -162 -28 -99 -43 -213 -28 -222 6 -3 13 -2 17 4 14
23 87 51 116 45 23 -5 29 -3 29 10 0 24 24 28 66 10 22 -9 70 -19 107 -22 68
-6 69 -6 105 -55 20 -26 42 -48 50 -48 7 0 10 -5 7 -10 -4 -6 11 -34 33 -63
22 -29 44 -64 47 -79 5 -21 13 -28 31 -28 13 0 33 -9 44 -20 26 -26 29 -138 4
-176 -15 -21 -15 -31 -4 -67 21 -71 60 -138 112 -194 31 -32 45 -53 36 -53 -9
0 -18 7 -22 15 -3 8 -11 15 -17 15 -7 0 -4 -8 6 -21 19 -20 18 -20 -10 -43
-16 -13 -34 -22 -40 -19 -6 2 -20 -5 -30 -17 -10 -11 -28 -20 -40 -20 -26 0
-50 -24 -40 -40 3 -5 2 -10 -4 -10 -5 0 -12 6 -14 13 -4 9 -8 9 -14 1 -13 -19
-56 -19 -95 1 -43 21 -49 35 -15 35 14 0 -1 12 -43 32 -36 17 -67 34 -70 38
-3 4 -21 11 -40 15 -55 12 -90 33 -90 55 0 11 -4 20 -10 20 -5 0 -10 -4 -10
-8 0 -10 -43 -15 -104 -13 -36 1 -76 26 -76 47 0 4 -7 15 -16 25 -23 26 -11
37 51 44 l55 7 -52 54 c-29 30 -57 54 -64 54 -6 0 -19 10 -30 22 -10 12 -13
18 -6 14 15 -9 16 6 0 22 -7 7 -8 12 -4 12 4 0 15 -9 25 -21 14 -17 21 -19 44
-10 18 7 35 7 54 0 30 -11 73 -4 73 11 0 6 -9 10 -21 10 -15 0 -19 5 -15 16 8
21 -34 56 -124 101 -41 21 -88 47 -105 59 -16 12 -35 20 -41 17 -6 -2 -23 8
-37 21 -15 14 -27 20 -27 14 0 -6 -3 -8 -7 -4 -4 4 3 16 17 27 20 15 21 18 5
12 -26 -8 -62 -33 -50 -33 6 0 2 -5 -8 -11 -28 -16 -29 -6 -4 32 30 46 82 53
97 15 5 -15 20 -30 32 -35 31 -12 153 -39 208 -46 25 -3 57 -8 72 -11 24 -5
27 -3 21 13 -7 21 -29 36 -58 40 -11 2 -24 8 -29 13 -6 6 -16 10 -23 10 -21 0
-143 59 -165 80 -12 11 -27 20 -34 20 -7 0 -15 6 -18 13 -3 8 -9 6 -20 -7 -24
-29 -21 1 4 41 11 19 31 35 47 39 45 10 50 12 21 13 -26 1 -28 3 -22 39 3 20
10 44 14 52 8 13 9 13 14 0 3 -8 7 -31 8 -50 2 -19 9 17 16 80 15 128 39 223
56 217 6 -2 26 24 45 57 18 34 39 72 47 86 9 15 14 56 14 106 0 44 3 83 6 87
7 7 33 -2 35 -12z m284 -67 c14 -6 13 -10 -10 -34 -19 -20 -29 -44 -35 -82 -8
-54 -9 -49 -15 50 -1 24 0 40 3 38 3 -3 11 3 19 14 16 23 15 22 38 14z m-441
-85 c9 -45 7 -78 -5 -121 -17 -65 -29 -42 -29 57 0 74 3 95 14 95 7 0 16 -14
20 -31z m306 -94 c-6 -8 -9 -19 -6 -24 4 -5 2 -12 -4 -16 -5 -3 -8 -18 -5 -33
4 -22 3 -21 -6 5 -14 39 -4 83 17 83 13 0 14 -3 4 -15z m110 -35 c0 -5 -2 -10
-4 -10 -3 0 -8 5 -11 10 -3 6 -1 10 4 10 6 0 11 -4 11 -10z m-755 -87 c10 -76
14 -193 19 -559 3 -236 1 -301 -9 -301 -17 0 -24 112 -32 549 -4 254 -3 368 4
368 6 0 14 -26 18 -57z m785 7 c0 -5 -2 -10 -4 -10 -3 0 -8 5 -11 10 -3 6 -1
10 4 10 6 0 11 -4 11 -10z m-100 -65 c0 -16 58 -135 66 -135 3 0 4 7 0 15 -7
18 5 20 22 3 18 -18 15 -28 -5 -21 -16 6 -16 3 2 -18 l20 -24 -29 25 c-27 24
-67 93 -100 175 l-16 40 20 -25 c11 -14 20 -29 20 -35z m154 -11 c3 -8 2 -12
-4 -9 -6 3 -10 10 -10 16 0 14 7 11 14 -7z m681 -43 c-7 -13 -116 -53 -123
-46 -3 2 12 12 34 20 21 9 46 20 54 25 20 12 43 12 35 1z m362 -27 c-3 -3 -12
-4 -19 -1 -8 3 -5 6 6 6 11 1 17 -2 13 -5z m-332 -53 c-2 -14 2 -34 7 -45 7
-14 7 -17 -2 -11 -9 5 -10 1 -5 -16 4 -13 4 -21 0 -17 -4 4 -14 1 -21 -7 -17
-17 -18 -29 -1 -19 8 5 8 3 -2 -9 -8 -11 -21 -15 -35 -11 -14 3 -28 -1 -35
-10 -8 -9 -21 -16 -30 -15 -10 0 -11 2 -3 6 6 2 12 10 12 16 0 6 10 21 22 34
12 13 17 23 12 23 -5 0 -15 -9 -22 -20 -11 -19 -52 -29 -52 -12 0 15 16 28 62
51 37 18 50 31 59 60 6 20 14 40 17 45 8 14 20 -15 17 -43z m293 -107 c-4 -72
-9 -89 -39 -139 -38 -63 -198 -229 -250 -259 -25 -15 -19 -5 28 40 33 33 70
78 81 99 12 22 27 51 34 65 7 14 16 27 19 30 4 3 17 28 29 55 12 28 27 59 33
70 32 59 40 81 45 138 l6 62 9 -40 c4 -22 7 -77 5 -121z m-361 129 c-5 -30
-20 -50 -63 -81 -39 -29 -82 -48 -96 -44 -5 1 -8 -2 -8 -6 0 -4 -12 -7 -27 -6
-16 1 -38 3 -51 3 -17 1 -22 6 -20 19 2 9 8 16 14 16 5 -1 59 24 119 56 122
63 136 68 132 43z m583 -17 c0 -2 -7 -7 -16 -10 -8 -3 -12 -2 -9 4 6 10 25 14
25 6z m-762 -13 c-10 -2 -26 -2 -35 0 -10 3 -2 5 17 5 19 0 27 -2 18 -5z
m-814 -19 c20 -8 21 -54 2 -54 -9 0 -12 7 -9 20 3 11 0 20 -6 20 -6 0 -11 5
-11 10 0 12 3 12 24 4z m1773 -20 c-3 -3 -12 -4 -19 -1 -8 3 -5 6 6 6 11 1 17
-2 13 -5z m56 -11 c-7 -2 -21 -2 -30 0 -10 3 -4 5 12 5 17 0 24 -2 18 -5z
m110 -20 c-7 -2 -19 -2 -25 0 -7 3 -2 5 12 5 14 0 19 -2 13 -5z m-881 -71 c-7
-2 -12 -10 -12 -18 0 -9 -4 -12 -10 -9 -5 3 -10 13 -10 21 0 8 5 12 10 9 6 -3
10 -1 10 5 0 6 5 8 12 4 9 -6 9 -9 0 -12z m-48 -37 c-5 19 -5 19 9 3 8 -10 16
-15 19 -12 3 2 3 -6 1 -19 l-5 -24 -24 22 c-13 12 -24 28 -24 36 0 8 6 6 15
-7 15 -19 15 -19 9 1z m-14 -65 c0 -5 -2 -10 -4 -10 -3 0 -8 5 -11 10 -3 6 -1
10 4 10 6 0 11 -4 11 -10z m40 -39 c0 -4 -9 -7 -20 -7 -11 0 -20 6 -20 12 0 7
8 10 20 7 11 -3 20 -8 20 -12z m-1362 -190 c8 -4 12 -12 10 -17 -1 -4 17 -13
42 -20 25 -7 41 -12 36 -13 -5 -1 -3 -8 4 -16 15 -18 -1 -20 -18 -3 -6 6 -29
11 -51 10 -22 -1 -52 3 -66 8 -22 8 -27 7 -35 -13 l-9 -22 0 23 c-1 25 40 72
61 72 7 0 19 -4 26 -9z m-42 -213 c-15 -21 -16 -22 -16 -2 0 11 6 26 12 32 19
19 22 -4 4 -30z m-96 -20 c0 -13 -4 -29 -9 -36 -6 -10 -10 -7 -15 13 -4 14 -4
30 -1 35 11 18 25 10 25 -12z m612 -187 c30 -7 78 -45 78 -62 0 -8 -6 -7 -17
2 -15 12 -16 12 -9 -6 4 -11 4 -16 0 -12 -4 4 -12 3 -19 -3 -13 -11 -57 -2
-49 11 3 5 -1 9 -8 9 -20 1 -70 49 -63 60 7 11 44 11 87 1z m-346 -116 c-18
-69 -44 -114 -56 -94 -6 9 -11 5 -16 -14 -3 -16 -9 -26 -11 -23 -9 9 20 81 43
108 12 16 29 44 36 64 18 52 22 25 4 -41z m861 -1 c26 -30 52 -63 57 -72 8
-15 -18 13 -91 98 -12 14 -24 22 -28 18 -4 -4 16 -34 45 -68 29 -33 51 -62 48
-65 -2 -3 -30 24 -61 60 -30 36 -58 61 -62 56 -3 -5 0 -13 6 -16 5 -4 8 -14 4
-23 -3 -9 -3 -13 1 -9 4 4 13 2 21 -5 11 -9 8 -17 -21 -44 -19 -18 -42 -45
-52 -61 -10 -17 -1 -10 23 17 37 41 42 43 59 30 18 -14 18 -14 5 3 -16 20 -9
32 15 23 9 -4 14 -12 10 -22 -3 -8 -2 -13 3 -10 5 3 14 0 20 -7 8 -10 -6 -28
-61 -76 l-72 -63 -53 58 c-29 33 -52 64 -53 70 0 14 28 27 55 26 17 -1 17 0 2
4 -14 5 -5 18 48 70 37 35 70 64 75 64 5 0 30 -25 57 -56z m172 -45 c24 -33
42 -61 40 -63 -2 -2 -17 -6 -34 -9 l-30 -6 30 14 30 14 -32 1 c-21 0 -33 5
-33 13 0 8 -11 24 -25 37 -19 18 -22 27 -14 41 5 11 13 19 17 18 4 0 27 -27
51 -60z m-59 -9 c23 -20 23 -21 6 -38 -17 -16 -18 -16 -11 7 5 18 4 22 -5 16
-9 -5 -11 -4 -6 3 4 7 2 12 -3 12 -6 0 -11 5 -11 10 0 14 4 13 30 -10z m30
-60 c0 -19 -11 -26 -23 -14 -8 8 3 34 14 34 5 0 9 -9 9 -20z m90 -14 c0 -2 -8
-10 -17 -17 -16 -13 -17 -12 -4 4 13 16 21 21 21 13z m-99 -59 c-16 -16 -20
-5 -8 23 9 22 11 23 14 6 3 -10 0 -23 -6 -29z m191 -44 c139 -163 135 -157
110 -144 -30 16 -58 0 -77 -44 -7 -19 -19 -35 -26 -35 -8 0 -6 6 4 18 22 24
21 41 -3 72 -23 29 -26 17 -5 -20 12 -22 11 -27 -7 -47 -26 -28 -53 -31 -43
-5 17 41 17 52 -1 58 -11 3 -41 15 -68 26 -34 14 -59 18 -86 13 -35 -6 -38 -4
-46 22 -15 53 -12 63 30 94 37 27 47 30 103 27 34 -1 65 1 69 5 4 4 0 7 -8 7
-9 0 -18 9 -21 20 -3 11 -4 20 -2 20 1 0 36 -39 77 -87z m-532 52 c13 -14 21
-25 18 -25 -2 0 -15 11 -28 25 -13 14 -21 25 -18 25 2 0 15 -11 28 -25z m-757
-12 c-18 -47 -82 -148 -94 -148 -7 0 -16 -11 -20 -25 -4 -14 -7 -19 -8 -11 -1
8 -11 -1 -24 -20 -12 -19 -26 -32 -31 -29 -4 3 -14 -6 -21 -20 -8 -14 -14 -21
-15 -17 0 20 27 57 95 127 40 41 82 94 94 118 21 42 36 58 24 25z m1193 -186
c44 -19 50 -25 44 -42 -9 -24 -38 -50 -46 -42 -3 3 5 14 17 26 25 23 21 24
-53 12 -26 -4 -45 -4 -42 1 3 4 -3 12 -14 16 -15 5 -18 12 -11 30 11 28 38 28
105 -1z"/>
<path d="M1424 2181 c6 -9 -25 -17 -38 -8 -2 1 -13 -6 -24 -16 -11 -10 -26
-15 -36 -11 -9 3 -16 1 -16 -5 0 -6 -11 -11 -25 -11 -14 0 -25 -4 -25 -10 0
-5 -12 -10 -27 -10 -16 -1 -39 -10 -52 -20 -20 -17 -21 -22 -10 -36 19 -23 51
-33 77 -23 20 8 22 5 22 -21 0 -22 7 -32 32 -44 53 -27 135 -15 122 18 -11 28
15 56 57 62 82 13 46 44 -53 44 -72 1 -66 7 36 41 49 15 71 19 74 11 2 -7 8
-12 13 -12 6 0 3 10 -6 22 -10 15 -26 23 -48 24 -17 0 -43 4 -56 8 -16 6 -21
5 -17 -3z"/>
<path d="M1452 1848 c2 -6 10 -14 16 -16 7 -2 10 2 6 12 -7 18 -28 22 -22 4z"/>
<path d="M1367 1694 c-16 -9 -27 -17 -25 -19 7 -7 69 10 69 20 1 16 -14 15
-44 -1z"/>
<path d="M1805 2240 c-3 -6 10 -26 29 -46 l35 -36 -16 40 c-16 41 -37 59 -48
42z"/>
<path d="M1834 2092 c-6 -21 -8 -22 -30 -7 -22 14 -25 14 -30 0 -4 -9 1 -24
11 -35 11 -12 16 -30 13 -49 -4 -29 8 -32 39 -9 17 13 26 84 14 105 -10 17
-11 16 -17 -5z"/>
<path d="M1850 1885 c-7 -9 -10 -18 -7 -21 3 -3 10 4 17 15 13 25 8 27 -10 6z"/>
<path d="M598 1433 c7 -3 16 -2 19 1 4 3 -2 6 -13 5 -11 0 -14 -3 -6 -6z"/>
<path d="M482 1383 c-21 -4 -20 -7 20 -37 24 -17 55 -37 70 -43 53 -23 102
-79 122 -137 11 -30 30 -65 43 -78 21 -19 27 -21 54 -11 30 12 31 11 50 -35
37 -87 56 -106 87 -84 9 6 27 16 40 22 12 5 22 11 22 13 0 2 -10 2 -22 0 -28
-5 -55 15 -60 42 -2 11 -11 26 -20 33 -11 8 -17 25 -16 48 1 19 -3 39 -8 44
-6 6 -10 0 -9 -18 0 -21 -5 -28 -23 -30 -31 -5 -47 10 -79 77 -15 31 -29 57
-29 59 -1 2 -8 4 -16 6 -19 3 -58 38 -52 48 3 5 2 8 -3 7 -25 -4 -25 4 2 27
17 14 21 21 11 16 -21 -10 -56 -5 -56 9 0 5 -9 9 -19 9 -11 0 -22 4 -25 8 -5
9 -50 11 -84 5z"/>
<path d="M700 1376 c7 -7 13 -7 20 0 6 6 3 10 -10 10 -13 0 -16 -4 -10 -10z"/>
<path d="M1016 1093 c11 -59 22 -83 40 -83 11 0 14 5 9 18 -4 9 -9 31 -12 48
-3 17 -14 36 -25 43 -18 11 -19 10 -12 -26z"/>
<path d="M950 1106 c0 -2 7 -9 15 -16 13 -11 14 -10 9 4 -5 14 -24 23 -24 12z"/>
<path d="M1040 993 c0 -5 4 -14 9 -21 6 -10 10 -9 14 7 3 14 0 21 -9 21 -8 0
-14 -3 -14 -7z"/>
<path d="M680 744 c0 -3 14 -17 32 -32 35 -29 80 -52 175 -87 34 -13 70 -30
78 -39 17 -17 55 -22 55 -7 0 4 -13 18 -30 31 -16 12 -28 26 -25 30 2 4 -1 7
-8 8 -61 8 -97 21 -97 33 0 6 -5 7 -11 4 -5 -4 -35 9 -64 29 -47 31 -105 48
-105 30z"/>
<path d="M1080 505 c-7 -9 -11 -18 -8 -20 3 -3 11 1 18 10 7 9 11 18 8 20 -3
3 -11 -1 -18 -10z"/>
<path d="M1168 413 c-10 -2 -18 -9 -18 -14 0 -14 16 -11 30 6 7 8 11 14 9 14
-2 -1 -12 -3 -21 -6z"/>
<path d="M1010 380 c0 -6 4 -9 9 -6 5 4 12 1 14 -4 3 -6 4 -5 3 2 -3 15 -26
23 -26 8z"/>
<path d="M1050 355 c0 -5 5 -17 10 -25 5 -8 10 -10 10 -5 0 6 -5 17 -10 25 -5
8 -10 11 -10 5z"/>
<path d="M1326 294 c-9 -8 -16 -23 -16 -31 0 -9 2 -14 4 -12 2 2 4 7 3 10 -1
4 7 16 17 28 22 24 15 29 -8 5z"/>
<path d="M1490 277 c0 -20 4 -37 10 -37 5 0 7 14 3 33 -8 45 -13 47 -13 4z"/>
<path d="M56 113 c-6 -14 -5 -15 5 -6 7 7 10 15 7 18 -3 3 -9 -2 -12 -12z"/>
<path d="M2475 2685 c-22 -8 -41 -19 -43 -24 -2 -5 -10 -7 -18 -4 -31 12 -233
-160 -234 -200 0 -7 -12 -34 -26 -62 -51 -102 -54 -317 -5 -355 11 -8 27 -41
36 -72 10 -35 22 -58 30 -58 8 0 21 -12 29 -28 8 -15 23 -36 35 -46 18 -16 23
-17 38 -5 11 9 14 10 9 2 -4 -7 -3 -13 3 -13 5 0 12 -9 16 -19 6 -20 34 -36
44 -25 3 3 9 78 13 167 9 216 11 228 23 216 6 -6 11 -89 12 -204 0 -107 4
-199 8 -205 3 -5 17 -7 30 -4 16 4 30 0 40 -10 33 -33 45 -20 46 52 2 111 16
142 19 42 4 -100 8 -71 19 140 6 124 8 137 10 67 2 -141 17 -92 19 63 1 77 6
150 12 160 12 22 12 81 3 298 -6 151 -19 190 -22 70 -2 -40 -6 -125 -11 -188
-7 -112 -7 -111 -6 58 0 94 -2 172 -6 172 -5 0 -9 -12 -9 -27 -1 -16 -5 -89
-9 -163 l-7 -135 -1 163 c0 202 -5 210 -97 177z m132 -487 c-2 -24 -4 -5 -4
42 0 47 2 66 4 43 2 -24 2 -62 0 -85z"/>
<path d="M8 423 c7 -3 16 -2 19 1 4 3 -2 6 -13 5 -11 0 -14 -3 -6 -6z"/>
</g>
</svg>
